<?xml version="1.0" encoding="UTF-8" standalone="no"?>
<!DOCTYPE svg PUBLIC "-//W3C//DTD SVG 1.1//EN" "http://www.w3.org/Graphics/SVG/1.1/DTD/svg11.dtd">
<svg width="100%" height="100%" viewBox="0 0 486 89" version="1.1" xmlns="http://www.w3.org/2000/svg" xmlns:xlink="http://www.w3.org/1999/xlink" xml:space="preserve" xmlns:serif="http://www.serif.com/" style="fill-rule:evenodd;clip-rule:evenodd;stroke-linejoin:round;stroke-miterlimit:2;">
    <g id="Layer-1" serif:id="Layer 1" transform="matrix(0.989055,0,0,0.989055,1628.643505,75.926972)">
        <g id="path11" transform="matrix(1,0,0,1,-21.232387,0)">
            <path d="M-1146.211,-44.721C-1152.851,-44.721 -1158.044,-42.899 -1161.79,-39.256C-1163.935,-37.178 -1165.365,-35.084 -1166.08,-32.973C-1166.761,-30.862 -1167.238,-27.202 -1167.51,-21.992C-1167.714,-18.791 -1168.48,-16.544 -1169.808,-15.25C-1171.102,-13.99 -1173.282,-13.36 -1176.346,-13.36L-1177.214,-13.36L-1177.214,6.866L-1174.559,6.866C-1167.987,6.866 -1162.913,5.811 -1159.338,3.699C-1152.596,-0.353 -1148.782,-7.299 -1147.897,-17.14C-1147.624,-20.102 -1146.994,-22.077 -1146.007,-23.064C-1144.985,-24.086 -1143.13,-24.597 -1140.44,-24.597L-1140.44,-44.721L-1146.211,-44.721Z" style="fill:white;"/>
        </g>
        <path id="path10" d="M-1423.608,-44.721C-1430.248,-44.721 -1435.44,-42.899 -1439.186,-39.256C-1441.331,-37.178 -1442.761,-35.084 -1443.476,-32.973C-1444.157,-30.862 -1444.634,-27.202 -1444.907,-21.992C-1445.111,-18.791 -1445.877,-16.544 -1447.205,-15.25C-1448.499,-13.99 -1450.678,-13.36 -1453.743,-13.36L-1454.611,-13.36L-1454.611,6.866L-1451.955,6.866C-1445.383,6.866 -1440.31,5.811 -1436.734,3.699C-1429.992,-0.353 -1426.179,-7.299 -1425.293,-17.14C-1425.021,-20.102 -1424.391,-22.077 -1423.404,-23.064C-1422.382,-24.086 -1420.526,-24.597 -1417.836,-24.597L-1417.836,-44.721L-1423.608,-44.721Z" style="fill:white;"/>
        <path id="path9" d="M-1506.3,-44.721L-1506.3,-17.855C-1506.3,-10.534 -1504.58,-4.813 -1501.141,-0.693C-1496.715,4.585 -1490.875,7.224 -1483.622,7.224C-1477.255,7.224 -1471.875,4.959 -1467.482,0.431C-1463.09,-4.132 -1460.893,-9.717 -1460.893,-16.322L-1460.893,-44.721L-1479.996,-44.721L-1479.996,-15.965C-1479.996,-13.071 -1481.188,-11.623 -1483.571,-11.623C-1485.989,-11.623 -1487.197,-13.071 -1487.197,-15.965L-1487.197,-44.721L-1506.3,-44.721Z" style="fill:white;"/>
        <g id="path8" transform="matrix(1,0,0,1,-21.232387,0)">
            <rect x="-1331.62" y="-45.436" width="19.102" height="50.923" style="fill:white;"/>
        </g>
        <path id="path7" d="M-1594.59,-55.258L-1594.59,-38.552C-1594.59,-35.71 -1593.79,-33.365 -1592.192,-31.518C-1590.593,-29.689 -1588.559,-28.774 -1586.09,-28.774C-1584.421,-28.774 -1582.716,-29.289 -1580.975,-30.319C-1581.934,-26.678 -1584.03,-24.857 -1587.263,-24.857C-1588.275,-24.857 -1589.456,-25.141 -1590.806,-25.71L-1590.806,-17.051C-1588.977,-16.34 -1587.138,-15.985 -1585.291,-15.985C-1581.081,-15.985 -1577.493,-17.601 -1574.527,-20.834C-1572.04,-23.552 -1570.797,-27.122 -1570.797,-31.545L-1570.797,-55.258L-1580.762,-55.258L-1580.762,-41.216C-1580.762,-39.476 -1581.392,-38.605 -1582.653,-38.605C-1583.968,-38.605 -1584.625,-39.396 -1584.625,-40.977L-1584.625,-55.258L-1594.59,-55.258Z" style="fill:rgb(215,53,62);"/>
        <g id="path6" transform="matrix(1,0,0,1,-21.232387,0)">
            <path d="M-1281.514,-46.457C-1286.996,-46.457 -1291.661,-44.448 -1295.509,-40.43C-1299.357,-36.446 -1301.281,-31.594 -1301.281,-25.874L-1301.281,5.487L-1282.178,5.487L-1282.178,-21.941C-1282.178,-25.72 -1281.123,-27.61 -1279.012,-27.61C-1277.854,-27.61 -1277.054,-27.202 -1276.611,-26.384C-1276.134,-25.567 -1275.896,-24.103 -1275.896,-21.992L-1275.896,5.487L-1256.793,5.487L-1256.793,-21.941C-1256.793,-25.72 -1255.721,-27.61 -1253.576,-27.61C-1252.418,-27.61 -1251.618,-27.202 -1251.175,-26.384C-1250.732,-25.567 -1250.511,-24.103 -1250.511,-21.992L-1250.511,5.487L-1231.409,5.487L-1231.409,-23.728C-1231.409,-30.641 -1232.924,-35.902 -1235.954,-39.511C-1239.802,-44.142 -1244.91,-46.457 -1251.277,-46.457C-1256.283,-46.457 -1261.288,-44.074 -1266.294,-39.307C-1270.788,-44.074 -1275.862,-46.457 -1281.514,-46.457Z" style="fill:white;"/>
        </g>
        <g id="path5" transform="matrix(1,0,0,1,-21.232387,0)">
            <path d="M-1196.115,-46.559C-1203.674,-46.559 -1210.059,-43.989 -1215.268,-38.847C-1220.444,-33.705 -1223.032,-27.406 -1223.032,-19.949C-1223.032,-12.458 -1220.461,-6.175 -1215.32,-1.102C-1210.178,3.972 -1203.827,6.509 -1196.268,6.509C-1190.071,6.509 -1194.546,4.517 -1189.473,0.533L-1190.241,-12.543C-1192.012,-10.636 -1193.851,-9.682 -1195.757,-9.682C-1198.107,-9.682 -1200.014,-10.704 -1201.478,-12.747C-1202.908,-14.79 -1203.623,-17.463 -1203.623,-20.766C-1203.623,-23.933 -1202.874,-26.521 -1201.376,-28.53C-1199.878,-30.573 -1197.937,-31.594 -1195.553,-31.594C-1191.978,-31.594 -1189.85,-29.704 -1189.169,-25.925L-1198.873,-25.925C-1199.486,-24.29 -1199.793,-22.622 -1199.793,-20.919C-1199.793,-19.693 -1199.571,-18.348 -1199.129,-16.884L-1180.279,-16.884C-1180.143,-18.519 -1180.075,-19.71 -1180.075,-20.46C-1180.075,-27.814 -1182.595,-33.995 -1187.634,-39C-1192.639,-44.04 -1188.726,-46.559 -1196.115,-46.559L-1196.115,-46.559Z" style="fill:white;"/>
        </g>
        <g id="path4" transform="matrix(1,0,0,1,-21.232387,0)">
            <path d="M-1390.306,-64.232L-1390.306,-44.21L-1374.422,-44.21L-1374.422,5.487L-1353.685,5.487L-1353.685,-44.21L-1337.851,-44.21L-1337.851,-64.232L-1390.306,-64.232Z" style="fill:white;"/>
        </g>
        <path id="path3" d="M-1564.578,-64.232L-1564.578,5.487L-1543.841,5.487L-1543.841,-45.538L-1540.01,-45.538C-1536.571,-45.538 -1534.852,-44.329 -1534.852,-41.912C-1534.852,-39.29 -1536.758,-37.979 -1540.572,-37.979L-1540.572,-19.387L-1536.588,-19.387C-1533.115,-19.387 -1531.378,-18.263 -1531.378,-16.016C-1531.378,-14.688 -1531.804,-13.752 -1532.655,-13.207C-1533.507,-12.696 -1534.971,-12.441 -1537.048,-12.441L-1540.572,-12.441L-1540.572,5.487L-1536.639,5.487C-1532.485,5.487 -1529.182,5.13 -1526.73,4.414C-1524.279,3.699 -1521.98,2.44 -1519.835,0.635C-1515.443,-3.145 -1513.246,-8.218 -1513.246,-14.586C-1513.246,-22.894 -1516.975,-28.666 -1524.432,-31.901C-1519.29,-35.782 -1516.72,-40.652 -1516.72,-46.508C-1516.72,-58.324 -1524.228,-64.232 -1539.244,-64.232L-1564.578,-64.232Z" style="fill:white;"/>
        <path id="path2" d="M-1627.921,-65.968C-1631.065,-65.968 -1633.623,-64.938 -1635.594,-62.878C-1637.566,-60.817 -1638.552,-58.162 -1638.552,-54.911L-1638.552,-28.694L-1627.734,-28.694L-1627.734,-52.353C-1627.734,-54.29 -1627.202,-55.258 -1626.136,-55.258C-1625.567,-55.258 -1625.185,-55.062 -1624.99,-54.671C-1624.795,-54.281 -1624.697,-53.508 -1624.697,-52.353L-1624.697,-28.694L-1613.88,-28.694L-1613.88,-52.54C-1613.88,-54.352 -1613.347,-55.258 -1612.281,-55.258C-1611.713,-55.258 -1611.34,-55.062 -1611.162,-54.671C-1610.967,-54.298 -1610.869,-53.526 -1610.869,-52.353L-1610.869,-28.694L-1600.052,-28.694L-1600.052,-53.979C-1600.052,-57.851 -1600.922,-60.817 -1602.663,-62.878C-1604.403,-64.938 -1606.908,-65.968 -1610.176,-65.968C-1612.237,-65.968 -1613.969,-65.569 -1615.372,-64.769C-1616.775,-63.988 -1618.089,-62.673 -1619.315,-60.826C-1621.322,-64.254 -1624.191,-65.968 -1627.921,-65.968Z" style="fill:rgb(215,53,62);"/>
        <g id="path30" transform="matrix(1,0,0,1,-21.232387,0)">
            <path d="M-1325.681,-62.939C-1326.22,-62.318 -1326.737,-61.582 -1326.853,-60.768C-1326.997,-59.745 -1326.863,-58.531 -1326.196,-57.739C-1325.422,-56.816 -1324.057,-56.393 -1322.853,-56.368C-1321.567,-56.341 -1320.208,-56.853 -1319.224,-57.682C-1318.194,-58.551 -1317.331,-59.853 -1317.224,-61.197C-1317.147,-62.17 -1317.539,-63.273 -1318.253,-63.939C-1319.132,-64.759 -1320.508,-64.987 -1321.71,-64.968C-1322.493,-64.958 -1323.243,-64.586 -1323.938,-64.225C-1324.579,-63.893 -1325.208,-63.484 -1325.681,-62.939Z" style="fill:url(#_Radial1);"/>
        </g>
        <g id="path31" transform="matrix(1,0,0,1,-21.232387,0)">
            <path d="M-1325.995,-57.425C-1325.995,-57.425 -1326.588,-56.808 -1326.938,-56.568C-1327.623,-56.099 -1328.363,-55.663 -1329.167,-55.454C-1329.785,-55.293 -1330.448,-55.282 -1331.081,-55.368C-1331.905,-55.48 -1332.706,-55.775 -1333.452,-56.139C-1334.217,-56.513 -1335.059,-56.886 -1335.567,-57.568C-1336.12,-58.313 -1336.313,-59.301 -1336.395,-60.225C-1336.47,-61.066 -1336.289,-61.921 -1336.081,-62.739C-1335.811,-63.8 -1334.881,-65.796 -1334.881,-65.796C-1334.881,-65.796 -1335.042,-64.348 -1335.138,-63.625C-1335.258,-62.728 -1335.571,-61.844 -1335.538,-60.939C-1335.506,-60.071 -1335.404,-59.147 -1334.967,-58.397C-1334.559,-57.698 -1333.865,-57.178 -1333.167,-56.768C-1332.525,-56.392 -1331.796,-56.07 -1331.053,-56.054C-1329.922,-56.029 -1328.888,-56.709 -1327.795,-56.997C-1327.199,-57.154 -1325.995,-57.425 -1325.995,-57.425L-1325.995,-57.425Z" style="fill:url(#_Linear2);"/>
        </g>
        <g id="path32" transform="matrix(1,0,0,1,-21.232387,0)">
            <path d="M-1326.795,-57.797C-1327.405,-56.721 -1329.161,-56.979 -1330.395,-56.911C-1331.201,-56.866 -1332.06,-56.892 -1332.795,-57.225C-1333.441,-57.517 -1333.997,-58.039 -1334.395,-58.625C-1334.844,-59.286 -1335.13,-60.087 -1335.195,-60.882C-1335.325,-62.454 -1334.88,-64.048 -1334.367,-65.539C-1334.002,-66.599 -1333.536,-67.67 -1332.795,-68.511C-1331.941,-69.48 -1330.783,-70.168 -1329.624,-70.739C-1328.765,-71.162 -1327.839,-71.603 -1326.881,-71.596C-1326.179,-71.592 -1325.439,-71.365 -1324.881,-70.939C-1324.154,-70.385 -1323.696,-69.506 -1323.367,-68.654C-1322.934,-67.53 -1322.28,-66.156 -1322.824,-65.082C-1323.14,-64.459 -1324.091,-64.485 -1324.681,-64.111C-1325.267,-63.739 -1325.887,-63.38 -1326.338,-62.854C-1326.768,-62.352 -1327.124,-61.752 -1327.281,-61.111C-1327.426,-60.519 -1327.348,-59.884 -1327.252,-59.282C-1327.171,-58.77 -1326.54,-58.247 -1326.795,-57.797L-1326.795,-57.797Z" style="fill:url(#_Linear3);"/>
        </g>
        <g id="path33" transform="matrix(1,0,0,1,-21.232387,0)">
            <path d="M-1317.19,-59.707C-1317.19,-59.707 -1316.387,-59.411 -1315.967,-59.349C-1315.146,-59.226 -1314.29,-59.157 -1313.476,-59.321C-1312.85,-59.447 -1312.248,-59.727 -1311.717,-60.081C-1311.025,-60.542 -1310.434,-61.157 -1309.921,-61.812C-1309.397,-62.481 -1308.803,-63.185 -1308.645,-64.021C-1308.472,-64.932 -1308.732,-65.906 -1309.061,-66.773C-1309.362,-67.562 -1309.898,-68.251 -1310.443,-68.896C-1311.15,-69.733 -1312.859,-71.121 -1312.859,-71.121C-1312.859,-71.121 -1312.081,-69.888 -1311.678,-69.281C-1311.178,-68.526 -1310.51,-67.868 -1310.144,-67.04C-1309.793,-66.246 -1309.481,-65.37 -1309.546,-64.504C-1309.607,-63.697 -1310.005,-62.925 -1310.453,-62.252C-1310.866,-61.633 -1311.381,-61.025 -1312.042,-60.685C-1313.048,-60.169 -1314.275,-60.328 -1315.384,-60.109C-1315.989,-59.99 -1317.19,-59.707 -1317.19,-59.707L-1317.19,-59.707Z" style="fill:url(#_Linear4);"/>
        </g>
        <g id="path34" transform="matrix(1,0,0,1,-21.232387,0)">
            <path d="M-1316.633,-60.391C-1315.615,-59.691 -1314.148,-60.691 -1313.008,-61.169C-1312.264,-61.481 -1311.503,-61.88 -1310.987,-62.501C-1310.534,-63.045 -1310.262,-63.758 -1310.16,-64.459C-1310.046,-65.249 -1310.139,-66.095 -1310.428,-66.839C-1310.998,-68.309 -1312.096,-69.548 -1313.209,-70.665C-1314,-71.458 -1314.888,-72.218 -1315.922,-72.65C-1317.114,-73.148 -1318.456,-73.261 -1319.748,-73.268C-1320.706,-73.272 -1321.731,-73.266 -1322.59,-72.839C-1323.218,-72.528 -1323.785,-72.001 -1324.101,-71.374C-1324.512,-70.558 -1324.541,-69.567 -1324.463,-68.656C-1324.362,-67.456 -1324.349,-65.935 -1323.39,-65.207C-1322.834,-64.785 -1321.989,-65.225 -1321.295,-65.145C-1320.606,-65.067 -1319.891,-65.015 -1319.255,-64.739C-1318.649,-64.476 -1318.067,-64.092 -1317.645,-63.584C-1317.256,-63.115 -1317.049,-62.51 -1316.871,-61.927C-1316.72,-61.431 -1317.06,-60.685 -1316.633,-60.391L-1316.633,-60.391Z" style="fill:url(#_Linear5);"/>
        </g>
        <g id="path35" transform="matrix(1,0,0,1,-21.232387,0)">
            <path d="M-1318.321,-63.758C-1318.321,-63.758 -1317.729,-64.375 -1317.378,-64.615C-1316.693,-65.085 -1315.953,-65.521 -1315.15,-65.73C-1314.532,-65.89 -1313.868,-65.901 -1313.235,-65.815C-1312.412,-65.704 -1311.611,-65.409 -1310.864,-65.044C-1310.1,-64.671 -1309.257,-64.298 -1308.75,-63.615C-1308.196,-62.871 -1308.004,-61.882 -1307.921,-60.958C-1307.846,-60.117 -1308.027,-59.263 -1308.236,-58.444C-1308.505,-57.383 -1309.436,-55.387 -1309.436,-55.387C-1309.436,-55.387 -1309.275,-56.836 -1309.178,-57.558C-1309.059,-58.456 -1308.745,-59.34 -1308.778,-60.244C-1308.81,-61.112 -1308.912,-62.037 -1309.35,-62.787C-1309.758,-63.486 -1310.452,-64.006 -1311.15,-64.415C-1311.791,-64.792 -1312.52,-65.113 -1313.264,-65.13C-1314.394,-65.155 -1315.428,-64.475 -1316.521,-64.187C-1317.118,-64.03 -1318.321,-63.758 -1318.321,-63.758L-1318.321,-63.758Z" style="fill:url(#_Linear6);"/>
        </g>
        <g id="path36" transform="matrix(1,0,0,1,-21.232387,0)">
            <path d="M-1317.521,-63.387C-1316.912,-64.462 -1315.155,-64.204 -1313.921,-64.273C-1313.116,-64.317 -1312.256,-64.291 -1311.521,-63.958C-1310.875,-63.666 -1310.319,-63.145 -1309.921,-62.558C-1309.473,-61.898 -1309.187,-61.097 -1309.121,-60.301C-1308.992,-58.73 -1309.437,-57.135 -1309.95,-55.644C-1310.314,-54.585 -1310.78,-53.513 -1311.521,-52.673C-1312.375,-51.703 -1313.534,-51.015 -1314.693,-50.444C-1315.552,-50.021 -1316.478,-49.58 -1317.435,-49.587C-1318.137,-49.591 -1318.877,-49.819 -1319.435,-50.244C-1320.162,-50.798 -1320.621,-51.677 -1320.95,-52.53C-1321.383,-53.653 -1322.037,-55.027 -1321.492,-56.101C-1321.177,-56.724 -1320.225,-56.698 -1319.635,-57.073C-1319.05,-57.444 -1318.43,-57.804 -1317.978,-58.33C-1317.548,-58.831 -1317.192,-59.431 -1317.035,-60.073C-1316.89,-60.665 -1316.968,-61.299 -1317.064,-61.901C-1317.145,-62.413 -1317.777,-62.936 -1317.522,-63.387L-1317.521,-63.387Z" style="fill:url(#_Linear7);"/>
        </g>
        <g id="path37" transform="matrix(1,0,0,1,-21.232387,0)">
            <path d="M-1327.127,-61.476C-1327.127,-61.476 -1327.929,-61.772 -1328.349,-61.835C-1329.171,-61.957 -1330.026,-62.026 -1330.841,-61.862C-1331.467,-61.737 -1332.068,-61.456 -1332.6,-61.102C-1333.292,-60.642 -1333.883,-60.026 -1334.395,-59.372C-1334.919,-58.702 -1335.514,-57.998 -1335.672,-57.163C-1335.844,-56.251 -1335.585,-55.278 -1335.255,-54.411C-1334.955,-53.621 -1334.419,-52.932 -1333.873,-52.287C-1333.167,-51.451 -1331.457,-50.062 -1331.457,-50.062C-1331.457,-50.062 -1332.235,-51.295 -1332.638,-51.903C-1333.138,-52.657 -1333.806,-53.315 -1334.172,-54.143C-1334.523,-54.938 -1334.836,-55.814 -1334.77,-56.68C-1334.709,-57.487 -1334.312,-58.258 -1333.863,-58.931C-1333.451,-59.551 -1332.936,-60.158 -1332.274,-60.498C-1331.269,-61.015 -1330.042,-60.856 -1328.933,-61.074C-1328.328,-61.194 -1327.127,-61.476 -1327.127,-61.476L-1327.127,-61.476Z" style="fill:url(#_Linear8);"/>
        </g>
        <g id="path38" transform="matrix(1,0,0,1,-21.232387,0)">
            <path d="M-1327.684,-60.792C-1328.702,-61.493 -1330.169,-60.493 -1331.308,-60.015C-1332.053,-59.703 -1332.814,-59.303 -1333.329,-58.683C-1333.783,-58.138 -1334.055,-57.426 -1334.156,-56.724C-1334.271,-55.934 -1334.177,-55.089 -1333.889,-54.345C-1333.318,-52.875 -1332.221,-51.635 -1331.107,-50.519C-1330.316,-49.725 -1329.429,-48.965 -1328.395,-48.533C-1327.203,-48.035 -1325.86,-47.922 -1324.568,-47.916C-1323.611,-47.912 -1322.585,-47.918 -1321.727,-48.344C-1321.098,-48.655 -1320.531,-49.183 -1320.216,-49.81C-1319.804,-50.626 -1319.776,-51.617 -1319.853,-52.527C-1319.955,-53.727 -1319.967,-55.249 -1320.926,-55.977C-1321.483,-56.399 -1322.327,-55.958 -1323.021,-56.038C-1323.71,-56.116 -1324.425,-56.168 -1325.061,-56.444C-1325.667,-56.707 -1326.25,-57.091 -1326.671,-57.599C-1327.061,-58.068 -1327.268,-58.673 -1327.445,-59.256C-1327.596,-59.752 -1327.257,-60.499 -1327.684,-60.792L-1327.684,-60.792Z" style="fill:url(#_Linear9);"/>
        </g>
        <path id="path45" d="M-1555.345,-55.451C-1555.867,-55.439 -1556.434,-55.366 -1556.866,-55.072C-1557.408,-54.702 -1557.918,-54.117 -1558.006,-53.467C-1558.108,-52.709 -1557.722,-51.887 -1557.219,-51.311C-1556.681,-50.697 -1555.859,-50.278 -1555.049,-50.171C-1554.201,-50.059 -1553.221,-50.211 -1552.544,-50.736C-1552.054,-51.116 -1551.704,-51.772 -1551.697,-52.392C-1551.687,-53.156 -1552.17,-53.899 -1552.694,-54.455C-1553.033,-54.818 -1553.529,-55.011 -1553.996,-55.183C-1554.426,-55.342 -1554.887,-55.462 -1555.345,-55.451Z" style="fill:url(#_Radial10);"/>
        <path id="path46" d="M-1558.068,-53.239C-1558.068,-53.239 -1558.611,-53.253 -1558.873,-53.315C-1559.387,-53.435 -1559.908,-53.596 -1560.35,-53.884C-1560.69,-54.105 -1560.979,-54.412 -1561.209,-54.746C-1561.51,-55.18 -1561.714,-55.682 -1561.862,-56.189C-1562.014,-56.707 -1562.199,-57.262 -1562.096,-57.792C-1561.984,-58.371 -1561.602,-58.884 -1561.204,-59.318C-1560.84,-59.713 -1560.362,-59.994 -1559.889,-60.247C-1559.276,-60.574 -1557.941,-60.992 -1557.941,-60.992C-1557.941,-60.992 -1558.69,-60.447 -1559.07,-60.183C-1559.542,-59.856 -1560.091,-59.624 -1560.502,-59.222C-1560.895,-58.835 -1561.286,-58.392 -1561.451,-57.865C-1561.604,-57.375 -1561.551,-56.826 -1561.441,-56.324C-1561.343,-55.861 -1561.182,-55.382 -1560.871,-55.026C-1560.4,-54.484 -1559.638,-54.29 -1559.035,-53.9C-1558.706,-53.688 -1558.063,-53.239 -1558.063,-53.239L-1558.068,-53.239Z" style="fill:url(#_Linear11);"/>
        <path id="path47" d="M-1558.236,-53.773C-1559.001,-53.599 -1559.632,-54.534 -1560.192,-55.084C-1560.558,-55.443 -1560.913,-55.857 -1561.071,-56.345C-1561.211,-56.773 -1561.204,-57.257 -1561.099,-57.695C-1560.981,-58.188 -1560.728,-58.665 -1560.382,-59.036C-1559.7,-59.769 -1558.761,-60.243 -1557.842,-60.64C-1557.189,-60.922 -1556.486,-61.162 -1555.775,-61.174C-1554.954,-61.188 -1554.136,-60.939 -1553.372,-60.639C-1552.805,-60.417 -1552.202,-60.171 -1551.796,-59.719C-1551.497,-59.388 -1551.287,-58.943 -1551.248,-58.499C-1551.197,-57.92 -1551.414,-57.329 -1551.673,-56.81C-1552.015,-56.126 -1552.38,-55.231 -1553.117,-55.027C-1553.545,-54.908 -1553.94,-55.366 -1554.368,-55.483C-1554.793,-55.599 -1555.227,-55.736 -1555.667,-55.723C-1556.086,-55.71 -1556.52,-55.62 -1556.888,-55.419C-1557.228,-55.234 -1557.493,-54.926 -1557.734,-54.623C-1557.94,-54.366 -1557.915,-53.846 -1558.236,-53.773L-1558.236,-53.773Z" style="fill:url(#_Linear12);"/>
        <path id="path48" d="M-1553.228,-50.082C-1553.228,-50.082 -1553.024,-49.579 -1552.874,-49.355C-1552.58,-48.917 -1552.246,-48.486 -1551.821,-48.173C-1551.494,-47.933 -1551.105,-47.771 -1550.712,-47.673C-1550.199,-47.545 -1549.658,-47.531 -1549.131,-47.571C-1548.592,-47.612 -1548.008,-47.633 -1547.548,-47.917C-1547.046,-48.226 -1546.7,-48.764 -1546.435,-49.29C-1546.193,-49.769 -1546.099,-50.316 -1546.029,-50.847C-1545.939,-51.537 -1546.019,-52.933 -1546.019,-52.933C-1546.019,-52.933 -1546.265,-52.041 -1546.378,-51.592C-1546.518,-51.034 -1546.541,-50.439 -1546.773,-49.913C-1546.996,-49.408 -1547.273,-48.887 -1547.708,-48.547C-1548.113,-48.23 -1548.644,-48.086 -1549.152,-48.009C-1549.619,-47.937 -1550.125,-47.919 -1550.568,-48.084C-1551.24,-48.335 -1551.691,-48.979 -1552.268,-49.406C-1552.583,-49.639 -1553.23,-50.082 -1553.23,-50.082L-1553.228,-50.082Z" style="fill:url(#_Linear13);"/>
        <path id="path49" d="M-1552.669,-50.114C-1552.562,-49.336 -1551.465,-49.075 -1550.753,-48.745C-1550.288,-48.529 -1549.775,-48.343 -1549.263,-48.366C-1548.814,-48.387 -1548.363,-48.564 -1547.99,-48.816C-1547.57,-49.101 -1547.214,-49.507 -1546.988,-49.96C-1546.542,-50.857 -1546.43,-51.903 -1546.382,-52.903C-1546.348,-53.614 -1546.372,-54.356 -1546.611,-55.026C-1546.887,-55.798 -1547.409,-56.477 -1547.959,-57.086C-1548.367,-57.537 -1548.808,-58.016 -1549.376,-58.236C-1549.791,-58.399 -1550.281,-58.439 -1550.71,-58.319C-1551.269,-58.162 -1551.746,-57.752 -1552.141,-57.326C-1552.66,-56.764 -1553.369,-56.108 -1553.3,-55.346C-1553.26,-54.904 -1552.692,-54.697 -1552.433,-54.336C-1552.175,-53.98 -1551.893,-53.622 -1551.75,-53.205C-1551.615,-52.808 -1551.546,-52.371 -1551.604,-51.955C-1551.658,-51.572 -1551.853,-51.216 -1552.05,-50.883C-1552.218,-50.6 -1552.714,-50.44 -1552.669,-50.114L-1552.669,-50.114Z" style="fill:url(#_Linear14);"/>
        <path id="path50" d="M-1551.811,-52.347C-1551.811,-52.347 -1551.268,-52.332 -1551.005,-52.271C-1550.492,-52.15 -1549.971,-51.99 -1549.529,-51.702C-1549.189,-51.48 -1548.9,-51.174 -1548.669,-50.84C-1548.37,-50.406 -1548.165,-49.904 -1548.017,-49.397C-1547.865,-48.878 -1547.679,-48.324 -1547.782,-47.793C-1547.895,-47.215 -1548.277,-46.701 -1548.675,-46.267C-1549.038,-45.873 -1549.516,-45.592 -1549.99,-45.339C-1550.603,-45.012 -1551.938,-44.594 -1551.938,-44.594C-1551.938,-44.594 -1551.189,-45.139 -1550.809,-45.402C-1550.336,-45.73 -1549.787,-45.961 -1549.377,-46.364C-1548.983,-46.751 -1548.593,-47.194 -1548.428,-47.72C-1548.274,-48.211 -1548.328,-48.759 -1548.438,-49.262C-1548.536,-49.724 -1548.697,-50.204 -1549.008,-50.56C-1549.479,-51.101 -1550.241,-51.296 -1550.844,-51.685C-1551.173,-51.898 -1551.815,-52.347 -1551.815,-52.347L-1551.811,-52.347Z" style="fill:url(#_Linear15);"/>
        <path id="path51" d="M-1551.643,-51.812C-1550.878,-51.987 -1550.247,-51.052 -1549.687,-50.502C-1549.321,-50.143 -1548.966,-49.729 -1548.807,-49.241C-1548.668,-48.813 -1548.675,-48.329 -1548.779,-47.891C-1548.898,-47.398 -1549.151,-46.921 -1549.496,-46.55C-1550.179,-45.816 -1551.118,-45.343 -1552.037,-44.946C-1552.69,-44.663 -1553.392,-44.424 -1554.104,-44.412C-1554.924,-44.397 -1555.743,-44.647 -1556.507,-44.946C-1557.073,-45.169 -1557.676,-45.415 -1558.083,-45.867C-1558.382,-46.198 -1558.591,-46.643 -1558.63,-47.087C-1558.681,-47.665 -1558.465,-48.257 -1558.206,-48.776C-1557.864,-49.46 -1557.499,-50.355 -1556.762,-50.559C-1556.334,-50.677 -1555.939,-50.22 -1555.511,-50.103C-1555.086,-49.987 -1554.652,-49.85 -1554.212,-49.863C-1553.793,-49.875 -1553.359,-49.966 -1552.99,-50.166C-1552.65,-50.352 -1552.386,-50.66 -1552.145,-50.962C-1551.939,-51.219 -1551.964,-51.74 -1551.643,-51.813L-1551.643,-51.812Z" style="fill:url(#_Linear16);"/>
        <path id="path52" d="M-1556.65,-55.503C-1556.65,-55.503 -1556.855,-56.007 -1557.005,-56.231C-1557.299,-56.668 -1557.633,-57.1 -1558.058,-57.412C-1558.385,-57.653 -1558.773,-57.815 -1559.167,-57.913C-1559.679,-58.041 -1560.221,-58.055 -1560.748,-58.015C-1561.286,-57.974 -1561.871,-57.952 -1562.331,-57.669C-1562.833,-57.36 -1563.179,-56.822 -1563.444,-56.296C-1563.686,-55.817 -1563.78,-55.27 -1563.85,-54.738C-1563.94,-54.049 -1563.86,-52.653 -1563.86,-52.653C-1563.86,-52.653 -1563.614,-53.545 -1563.501,-53.994C-1563.361,-54.552 -1563.338,-55.147 -1563.106,-55.673C-1562.883,-56.178 -1562.606,-56.699 -1562.171,-57.039C-1561.766,-57.355 -1561.235,-57.499 -1560.727,-57.577C-1560.259,-57.648 -1559.754,-57.667 -1559.311,-57.502C-1558.638,-57.251 -1558.188,-56.607 -1557.611,-56.18C-1557.296,-55.947 -1556.649,-55.504 -1556.649,-55.504L-1556.65,-55.503Z" style="fill:url(#_Linear17);"/>
        <path id="path53" d="M-1557.21,-55.472C-1557.316,-56.25 -1558.414,-56.51 -1559.126,-56.841C-1559.59,-57.057 -1560.104,-57.243 -1560.616,-57.219C-1561.065,-57.199 -1561.516,-57.022 -1561.889,-56.769C-1562.308,-56.485 -1562.665,-56.078 -1562.891,-55.625C-1563.337,-54.729 -1563.449,-53.683 -1563.497,-52.683C-1563.531,-51.972 -1563.507,-51.23 -1563.268,-50.56C-1562.991,-49.787 -1562.47,-49.109 -1561.92,-48.5C-1561.512,-48.049 -1561.071,-47.57 -1560.503,-47.349C-1560.088,-47.187 -1559.598,-47.147 -1559.169,-47.267C-1558.61,-47.423 -1558.132,-47.834 -1557.738,-48.26C-1557.219,-48.821 -1556.51,-49.478 -1556.578,-50.24C-1556.618,-50.681 -1557.187,-50.889 -1557.446,-51.249C-1557.704,-51.606 -1557.986,-51.964 -1558.128,-52.38C-1558.264,-52.777 -1558.333,-53.215 -1558.275,-53.63C-1558.221,-54.014 -1558.026,-54.37 -1557.829,-54.703C-1557.661,-54.986 -1557.165,-55.146 -1557.21,-55.472L-1557.21,-55.472Z" style="fill:url(#_Linear18);"/>
        <g id="path60" transform="matrix(1,0,0,1,-21.232387,0)">
            <path d="M-1152.277,-13.398C-1152.334,-12.879 -1152.336,-12.308 -1152.102,-11.841C-1151.807,-11.255 -1151.295,-10.672 -1150.662,-10.499C-1149.924,-10.298 -1149.058,-10.571 -1148.421,-10.995C-1147.741,-11.447 -1147.217,-12.206 -1147.004,-12.995C-1146.781,-13.821 -1146.803,-14.813 -1147.234,-15.553C-1147.546,-16.089 -1148.15,-16.522 -1148.764,-16.611C-1149.52,-16.72 -1150.32,-16.341 -1150.94,-15.896C-1151.345,-15.607 -1151.602,-15.141 -1151.834,-14.701C-1152.048,-14.295 -1152.228,-13.855 -1152.277,-13.399L-1152.277,-13.398Z" style="fill:url(#_Radial19);"/>
        </g>
        <g id="path61" transform="matrix(1,0,0,1,-21.232387,0)">
            <path d="M-1150.444,-10.408C-1150.444,-10.408 -1150.53,-9.871 -1150.625,-9.619C-1150.813,-9.126 -1151.04,-8.63 -1151.384,-8.23C-1151.649,-7.923 -1151.991,-7.677 -1152.352,-7.492C-1152.822,-7.252 -1153.347,-7.116 -1153.869,-7.036C-1154.402,-6.954 -1154.977,-6.843 -1155.489,-7.015C-1156.048,-7.203 -1156.506,-7.649 -1156.884,-8.101C-1157.227,-8.514 -1157.443,-9.024 -1157.631,-9.527C-1157.874,-10.178 -1158.112,-11.556 -1158.112,-11.556C-1158.112,-11.556 -1157.671,-10.742 -1157.46,-10.33C-1157.197,-9.819 -1157.04,-9.244 -1156.695,-8.784C-1156.364,-8.343 -1155.976,-7.898 -1155.476,-7.665C-1155.01,-7.448 -1154.46,-7.428 -1153.947,-7.468C-1153.476,-7.504 -1152.979,-7.6 -1152.585,-7.861C-1151.986,-8.257 -1151.693,-8.986 -1151.228,-9.533C-1150.973,-9.83 -1150.444,-10.408 -1150.444,-10.408L-1150.444,-10.408Z" style="fill:url(#_Linear20);"/>
        </g>
        <g id="path62" transform="matrix(1,0,0,1,-21.232387,0)">
            <path d="M-1150.996,-10.312C-1150.924,-9.53 -1151.934,-9.028 -1152.553,-8.546C-1152.957,-8.23 -1153.414,-7.932 -1153.919,-7.84C-1154.361,-7.758 -1154.841,-7.83 -1155.261,-7.991C-1155.734,-8.173 -1156.173,-8.487 -1156.496,-8.879C-1157.132,-9.652 -1157.478,-10.645 -1157.75,-11.608C-1157.944,-12.293 -1158.089,-13.021 -1158.007,-13.728C-1157.913,-14.543 -1157.558,-15.322 -1157.16,-16.039C-1156.865,-16.571 -1156.541,-17.137 -1156.039,-17.48C-1155.672,-17.733 -1155.203,-17.882 -1154.758,-17.862C-1154.178,-17.836 -1153.62,-17.543 -1153.14,-17.218C-1152.507,-16.788 -1151.668,-16.309 -1151.563,-15.551C-1151.502,-15.112 -1152.008,-14.78 -1152.18,-14.372C-1152.351,-13.966 -1152.544,-13.553 -1152.589,-13.115C-1152.632,-12.698 -1152.599,-12.256 -1152.45,-11.865C-1152.31,-11.503 -1152.04,-11.201 -1151.772,-10.921C-1151.544,-10.683 -1151.025,-10.639 -1150.995,-10.312L-1150.996,-10.312Z" style="fill:url(#_Linear21);"/>
        </g>
        <g id="path63" transform="matrix(1,0,0,1,-21.232387,0)">
            <path d="M-1146.677,-14.788C-1146.677,-14.788 -1146.15,-14.924 -1145.909,-15.044C-1145.436,-15.277 -1144.964,-15.551 -1144.598,-15.931C-1144.317,-16.224 -1144.105,-16.588 -1143.956,-16.965C-1143.762,-17.456 -1143.676,-17.991 -1143.646,-18.518C-1143.615,-19.057 -1143.56,-19.64 -1143.78,-20.133C-1144.02,-20.671 -1144.508,-21.085 -1144.995,-21.418C-1145.437,-21.721 -1145.967,-21.886 -1146.485,-22.025C-1147.156,-22.206 -1148.551,-22.311 -1148.551,-22.311C-1148.551,-22.311 -1147.699,-21.949 -1147.269,-21.778C-1146.734,-21.566 -1146.147,-21.465 -1145.657,-21.165C-1145.186,-20.878 -1144.705,-20.534 -1144.426,-20.058C-1144.165,-19.615 -1144.092,-19.069 -1144.083,-18.555C-1144.073,-18.083 -1144.122,-17.579 -1144.345,-17.162C-1144.682,-16.528 -1145.38,-16.167 -1145.879,-15.651C-1146.152,-15.37 -1146.676,-14.787 -1146.676,-14.787L-1146.677,-14.788Z" style="fill:url(#_Linear22);"/>
        </g>
        <g id="path64" transform="matrix(1,0,0,1,-21.232387,0)">
            <path d="M-1146.634,-15.347C-1145.849,-15.351 -1145.445,-16.403 -1145.024,-17.065C-1144.749,-17.497 -1144.497,-17.982 -1144.452,-18.492C-1144.413,-18.941 -1144.529,-19.411 -1144.73,-19.814C-1144.957,-20.267 -1145.313,-20.674 -1145.732,-20.958C-1146.562,-21.518 -1147.584,-21.767 -1148.569,-21.947C-1149.269,-22.074 -1150.007,-22.149 -1150.703,-22C-1151.506,-21.828 -1152.247,-21.401 -1152.923,-20.936C-1153.424,-20.591 -1153.957,-20.217 -1154.251,-19.683C-1154.466,-19.293 -1154.571,-18.812 -1154.508,-18.371C-1154.427,-17.796 -1154.083,-17.269 -1153.713,-16.822C-1153.225,-16.233 -1152.667,-15.444 -1151.903,-15.411C-1151.46,-15.393 -1151.18,-15.929 -1150.788,-16.138C-1150.4,-16.347 -1150.008,-16.579 -1149.577,-16.665C-1149.165,-16.747 -1148.722,-16.758 -1148.318,-16.644C-1147.945,-16.541 -1147.618,-16.3 -1147.314,-16.06C-1147.056,-15.856 -1146.963,-15.344 -1146.633,-15.345L-1146.634,-15.347Z" style="fill:url(#_Linear23);"/>
        </g>
        <g id="path65" transform="matrix(1,0,0,1,-21.232387,0)">
            <path d="M-1148.734,-16.492C-1148.734,-16.492 -1148.648,-17.028 -1148.553,-17.281C-1148.365,-17.774 -1148.137,-18.269 -1147.794,-18.669C-1147.529,-18.977 -1147.187,-19.223 -1146.826,-19.407C-1146.356,-19.647 -1145.831,-19.783 -1145.309,-19.864C-1144.775,-19.946 -1144.201,-20.056 -1143.689,-19.884C-1143.13,-19.697 -1142.672,-19.25 -1142.294,-18.798C-1141.951,-18.386 -1141.735,-17.875 -1141.547,-17.373C-1141.304,-16.721 -1141.066,-15.343 -1141.066,-15.343C-1141.066,-15.343 -1141.507,-16.157 -1141.718,-16.569C-1141.981,-17.08 -1142.137,-17.655 -1142.482,-18.115C-1142.814,-18.556 -1143.201,-19.002 -1143.702,-19.235C-1144.168,-19.452 -1144.718,-19.471 -1145.231,-19.432C-1145.702,-19.396 -1146.199,-19.3 -1146.592,-19.039C-1147.191,-18.643 -1147.484,-17.913 -1147.95,-17.367C-1148.205,-17.069 -1148.734,-16.491 -1148.734,-16.491L-1148.734,-16.492Z" style="fill:url(#_Linear24);"/>
        </g>
        <g id="path66" transform="matrix(1,0,0,1,-21.232387,0)">
            <path d="M-1148.182,-16.588C-1148.254,-17.369 -1147.244,-17.871 -1146.625,-18.354C-1146.221,-18.669 -1145.763,-18.967 -1145.259,-19.059C-1144.816,-19.141 -1144.337,-19.07 -1143.917,-18.909C-1143.444,-18.726 -1143.004,-18.412 -1142.682,-18.021C-1142.045,-17.248 -1141.7,-16.255 -1141.427,-15.291C-1141.234,-14.606 -1141.089,-13.879 -1141.171,-13.172C-1141.265,-12.356 -1141.62,-11.578 -1142.018,-10.86C-1142.313,-10.328 -1142.636,-9.763 -1143.139,-9.419C-1143.506,-9.167 -1143.975,-9.018 -1144.42,-9.038C-1145,-9.064 -1145.558,-9.356 -1146.038,-9.682C-1146.671,-10.111 -1147.51,-10.591 -1147.615,-11.348C-1147.676,-11.788 -1147.17,-12.119 -1146.998,-12.528C-1146.827,-12.934 -1146.634,-13.346 -1146.589,-13.784C-1146.546,-14.201 -1146.579,-14.643 -1146.728,-15.035C-1146.868,-15.396 -1147.138,-15.699 -1147.406,-15.978C-1147.633,-16.216 -1148.152,-16.26 -1148.182,-16.588L-1148.182,-16.588Z" style="fill:url(#_Linear25);"/>
        </g>
        <g id="path67" transform="matrix(1,0,0,1,-21.232387,0)">
            <path d="M-1152.501,-12.111C-1152.501,-12.111 -1153.027,-11.975 -1153.269,-11.856C-1153.742,-11.622 -1154.214,-11.348 -1154.58,-10.968C-1154.861,-10.676 -1155.073,-10.312 -1155.222,-9.935C-1155.416,-9.444 -1155.502,-8.908 -1155.532,-8.381C-1155.563,-7.842 -1155.618,-7.26 -1155.398,-6.766C-1155.157,-6.228 -1154.67,-5.814 -1154.183,-5.481C-1153.741,-5.178 -1153.211,-5.013 -1152.693,-4.874C-1152.022,-4.694 -1150.627,-4.589 -1150.627,-4.589C-1150.627,-4.589 -1151.479,-4.95 -1151.909,-5.121C-1152.444,-5.333 -1153.031,-5.435 -1153.521,-5.734C-1153.992,-6.022 -1154.473,-6.365 -1154.752,-6.841C-1155.012,-7.284 -1155.086,-7.83 -1155.095,-8.344C-1155.105,-8.817 -1155.056,-9.32 -1154.833,-9.737C-1154.496,-10.371 -1153.798,-10.732 -1153.299,-11.248C-1153.026,-11.53 -1152.502,-12.112 -1152.502,-12.112L-1152.501,-12.111Z" style="fill:url(#_Linear26);"/>
        </g>
        <g id="path68" transform="matrix(1,0,0,1,-21.232387,0)">
            <path d="M-1152.544,-11.553C-1153.329,-11.549 -1153.732,-10.496 -1154.154,-9.834C-1154.429,-9.402 -1154.681,-8.918 -1154.726,-8.407C-1154.765,-7.959 -1154.649,-7.488 -1154.447,-7.086C-1154.221,-6.632 -1153.865,-6.226 -1153.446,-5.941C-1152.616,-5.381 -1151.594,-5.132 -1150.609,-4.953C-1149.909,-4.825 -1149.17,-4.751 -1148.475,-4.9C-1147.672,-5.072 -1146.931,-5.499 -1146.254,-5.964C-1145.754,-6.309 -1145.22,-6.683 -1144.927,-7.216C-1144.712,-7.606 -1144.607,-8.087 -1144.669,-8.528C-1144.75,-9.103 -1145.094,-9.63 -1145.465,-10.077C-1145.953,-10.666 -1146.51,-11.456 -1147.274,-11.488C-1147.717,-11.507 -1147.998,-10.971 -1148.389,-10.762C-1148.777,-10.553 -1149.169,-10.321 -1149.601,-10.234C-1150.012,-10.152 -1150.455,-10.142 -1150.859,-10.253C-1151.232,-10.357 -1151.559,-10.597 -1151.863,-10.837C-1152.122,-11.041 -1152.215,-11.553 -1152.544,-11.552L-1152.544,-11.553Z" style="fill:url(#_Linear27);"/>
        </g>
        <path id="path75" d="M-1631.412,-60.364C-1631.687,-60.387 -1631.99,-60.38 -1632.233,-60.251C-1632.54,-60.087 -1632.842,-59.808 -1632.925,-59.471C-1633.022,-59.078 -1632.866,-58.624 -1632.633,-58.292C-1632.385,-57.938 -1631.977,-57.671 -1631.557,-57.568C-1631.117,-57.461 -1630.592,-57.485 -1630.206,-57.723C-1629.927,-57.895 -1629.705,-58.221 -1629.666,-58.547C-1629.618,-58.948 -1629.829,-59.366 -1630.073,-59.689C-1630.232,-59.899 -1630.481,-60.029 -1630.717,-60.146C-1630.935,-60.254 -1631.17,-60.343 -1631.412,-60.364L-1631.412,-60.364Z" style="fill:url(#_Radial28);"/>
        <path id="path76" d="M-1632.97,-59.355C-1632.97,-59.355 -1633.255,-59.393 -1633.39,-59.44C-1633.653,-59.533 -1633.918,-59.647 -1634.135,-59.824C-1634.3,-59.96 -1634.435,-60.137 -1634.538,-60.326C-1634.671,-60.572 -1634.75,-60.847 -1634.799,-61.123C-1634.849,-61.404 -1634.916,-61.707 -1634.831,-61.98C-1634.739,-62.278 -1634.509,-62.526 -1634.275,-62.732C-1634.061,-62.919 -1633.794,-63.04 -1633.53,-63.146C-1633.189,-63.283 -1632.463,-63.427 -1632.463,-63.427C-1632.463,-63.427 -1632.887,-63.183 -1633.103,-63.066C-1633.37,-62.92 -1633.672,-62.83 -1633.911,-62.641C-1634.14,-62.46 -1634.371,-62.249 -1634.487,-61.981C-1634.596,-61.732 -1634.599,-61.44 -1634.572,-61.169C-1634.547,-60.921 -1634.489,-60.659 -1634.346,-60.454C-1634.129,-60.142 -1633.739,-59.997 -1633.444,-59.757C-1633.283,-59.627 -1632.971,-59.354 -1632.971,-59.354L-1632.97,-59.355Z" style="fill:url(#_Linear29);"/>
        <path id="path77" d="M-1633.028,-59.645C-1633.441,-59.597 -1633.719,-60.125 -1633.983,-60.446C-1634.155,-60.656 -1634.319,-60.894 -1634.374,-61.16C-1634.423,-61.393 -1634.393,-61.647 -1634.312,-61.872C-1634.222,-62.125 -1634.061,-62.361 -1633.858,-62.537C-1633.458,-62.884 -1632.937,-63.08 -1632.43,-63.236C-1632.071,-63.348 -1631.687,-63.434 -1631.312,-63.4C-1630.88,-63.36 -1630.463,-63.183 -1630.078,-62.981C-1629.793,-62.832 -1629.49,-62.669 -1629.302,-62.407C-1629.164,-62.216 -1629.078,-61.97 -1629.083,-61.734C-1629.093,-61.427 -1629.236,-61.128 -1629.403,-60.87C-1629.622,-60.529 -1629.864,-60.079 -1630.264,-60.014C-1630.496,-59.976 -1630.678,-60.239 -1630.896,-60.325C-1631.113,-60.41 -1631.334,-60.507 -1631.566,-60.525C-1631.787,-60.541 -1632.021,-60.519 -1632.226,-60.435C-1632.415,-60.357 -1632.572,-60.209 -1632.717,-60.065C-1632.84,-59.941 -1632.856,-59.666 -1633.029,-59.646L-1633.028,-59.645Z" style="fill:url(#_Linear30);"/>
        <path id="path78" d="M-1630.604,-57.418C-1630.604,-57.418 -1630.525,-57.142 -1630.458,-57.015C-1630.328,-56.768 -1630.178,-56.522 -1629.971,-56.334C-1629.812,-56.19 -1629.617,-56.082 -1629.416,-56.008C-1629.153,-55.912 -1628.869,-55.873 -1628.59,-55.864C-1628.304,-55.856 -1627.995,-55.833 -1627.737,-55.956C-1627.455,-56.09 -1627.243,-56.354 -1627.073,-56.615C-1626.918,-56.854 -1626.838,-57.136 -1626.771,-57.412C-1626.685,-57.769 -1626.647,-58.509 -1626.647,-58.509C-1626.647,-58.509 -1626.827,-58.053 -1626.912,-57.823C-1627.017,-57.538 -1627.063,-57.226 -1627.215,-56.962C-1627.361,-56.71 -1627.537,-56.451 -1627.785,-56.297C-1628.017,-56.154 -1628.304,-56.108 -1628.576,-56.096C-1628.826,-56.086 -1629.093,-56.104 -1629.317,-56.217C-1629.656,-56.387 -1629.857,-56.751 -1630.136,-57.009C-1630.289,-57.148 -1630.604,-57.418 -1630.604,-57.418L-1630.604,-57.418Z" style="fill:url(#_Linear31);"/>
        <path id="path79" d="M-1630.307,-57.403C-1630.295,-56.988 -1629.733,-56.788 -1629.377,-56.574C-1629.145,-56.433 -1628.886,-56.306 -1628.615,-56.29C-1628.377,-56.275 -1628.13,-56.342 -1627.919,-56.454C-1627.682,-56.58 -1627.472,-56.773 -1627.327,-56.999C-1627.041,-57.445 -1626.923,-57.989 -1626.84,-58.513C-1626.782,-58.885 -1626.752,-59.276 -1626.84,-59.642C-1626.941,-60.065 -1627.177,-60.451 -1627.432,-60.803C-1627.621,-61.064 -1627.826,-61.341 -1628.112,-61.489C-1628.321,-61.598 -1628.577,-61.647 -1628.81,-61.608C-1629.113,-61.558 -1629.387,-61.369 -1629.619,-61.167C-1629.924,-60.902 -1630.335,-60.597 -1630.342,-60.192C-1630.342,-59.957 -1630.059,-59.816 -1629.944,-59.611C-1629.828,-59.408 -1629.7,-59.204 -1629.649,-58.977C-1629.6,-58.76 -1629.589,-58.526 -1629.639,-58.311C-1629.689,-58.112 -1629.812,-57.936 -1629.935,-57.772C-1630.04,-57.633 -1630.309,-57.576 -1630.304,-57.402L-1630.307,-57.403Z" style="fill:url(#_Linear32);"/>
        <path id="path80" d="M-1629.729,-58.529C-1629.729,-58.529 -1629.444,-58.491 -1629.309,-58.443C-1629.046,-58.351 -1628.781,-58.237 -1628.565,-58.06C-1628.399,-57.923 -1628.264,-57.746 -1628.161,-57.558C-1628.028,-57.312 -1627.949,-57.036 -1627.9,-56.761C-1627.849,-56.48 -1627.784,-56.177 -1627.868,-55.904C-1627.96,-55.606 -1628.19,-55.358 -1628.425,-55.152C-1628.638,-54.964 -1628.906,-54.844 -1629.169,-54.738C-1629.511,-54.601 -1630.237,-54.457 -1630.237,-54.457C-1630.237,-54.457 -1629.812,-54.701 -1629.597,-54.818C-1629.329,-54.964 -1629.027,-55.054 -1628.788,-55.243C-1628.559,-55.424 -1628.329,-55.634 -1628.212,-55.902C-1628.103,-56.152 -1628.1,-56.443 -1628.127,-56.714C-1628.152,-56.963 -1628.21,-57.224 -1628.353,-57.429C-1628.57,-57.741 -1628.96,-57.887 -1629.255,-58.126C-1629.417,-58.256 -1629.729,-58.53 -1629.729,-58.53L-1629.729,-58.529Z" style="fill:url(#_Linear33);"/>
        <path id="path81" d="M-1629.671,-58.238C-1629.258,-58.286 -1628.98,-57.758 -1628.716,-57.437C-1628.544,-57.228 -1628.381,-56.989 -1628.325,-56.724C-1628.276,-56.491 -1628.307,-56.236 -1628.387,-56.012C-1628.477,-55.759 -1628.638,-55.522 -1628.841,-55.347C-1629.241,-55 -1629.763,-54.804 -1630.269,-54.647C-1630.629,-54.536 -1631.012,-54.45 -1631.387,-54.484C-1631.819,-54.523 -1632.236,-54.701 -1632.621,-54.902C-1632.906,-55.052 -1633.21,-55.215 -1633.398,-55.476C-1633.536,-55.668 -1633.621,-55.914 -1633.616,-56.15C-1633.606,-56.457 -1633.463,-56.756 -1633.297,-57.014C-1633.078,-57.354 -1632.835,-57.804 -1632.435,-57.87C-1632.204,-57.908 -1632.022,-57.645 -1631.803,-57.559C-1631.586,-57.474 -1631.366,-57.377 -1631.133,-57.359C-1630.912,-57.342 -1630.679,-57.365 -1630.473,-57.449C-1630.284,-57.527 -1630.127,-57.674 -1629.982,-57.819C-1629.86,-57.942 -1629.843,-58.217 -1629.67,-58.237L-1629.671,-58.238Z" style="fill:url(#_Linear34);"/>
        <path id="path82" d="M-1632.096,-60.465C-1632.096,-60.465 -1632.175,-60.742 -1632.241,-60.868C-1632.371,-61.115 -1632.522,-61.361 -1632.729,-61.549C-1632.887,-61.694 -1633.082,-61.802 -1633.284,-61.876C-1633.546,-61.972 -1633.83,-62.01 -1634.11,-62.02C-1634.395,-62.028 -1634.704,-62.05 -1634.962,-61.928C-1635.244,-61.793 -1635.457,-61.53 -1635.626,-61.268C-1635.781,-61.03 -1635.862,-60.748 -1635.928,-60.472C-1636.014,-60.114 -1636.052,-59.375 -1636.052,-59.375C-1636.052,-59.375 -1635.872,-59.831 -1635.787,-60.06C-1635.682,-60.346 -1635.636,-60.658 -1635.484,-60.921C-1635.338,-61.174 -1635.162,-61.433 -1634.914,-61.587C-1634.682,-61.729 -1634.395,-61.775 -1634.123,-61.787C-1633.873,-61.798 -1633.606,-61.779 -1633.382,-61.667C-1633.043,-61.497 -1632.842,-61.132 -1632.563,-60.875C-1632.41,-60.735 -1632.095,-60.465 -1632.095,-60.465L-1632.096,-60.465Z" style="fill:url(#_Linear35);"/>
        <path id="path83" d="M-1632.392,-60.481C-1632.404,-60.896 -1632.966,-61.096 -1633.322,-61.31C-1633.554,-61.45 -1633.814,-61.577 -1634.084,-61.594C-1634.322,-61.608 -1634.57,-61.541 -1634.78,-61.43C-1635.017,-61.304 -1635.228,-61.11 -1635.373,-60.885C-1635.658,-60.439 -1635.777,-59.895 -1635.859,-59.371C-1635.917,-58.999 -1635.947,-58.607 -1635.859,-58.241C-1635.758,-57.819 -1635.522,-57.432 -1635.267,-57.08C-1635.078,-56.819 -1634.873,-56.542 -1634.587,-56.394C-1634.378,-56.285 -1634.122,-56.236 -1633.89,-56.275C-1633.586,-56.326 -1633.312,-56.515 -1633.08,-56.716C-1632.775,-56.982 -1632.365,-57.287 -1632.357,-57.692C-1632.357,-57.926 -1632.641,-58.068 -1632.756,-58.273C-1632.871,-58.475 -1632.999,-58.68 -1633.05,-58.907C-1633.099,-59.123 -1633.11,-59.358 -1633.06,-59.573C-1633.01,-59.772 -1632.887,-59.948 -1632.764,-60.112C-1632.659,-60.25 -1632.39,-60.307 -1632.395,-60.481L-1632.392,-60.481Z" style="fill:url(#_Linear36);"/>
    </g>
    <defs>
        <radialGradient id="_Radial1" cx="0" cy="0" r="1" gradientUnits="userSpaceOnUse" gradientTransform="matrix(4.845018,0,0,4.301001,-1322.059501,-60.667981)"><stop offset="0" style="stop-color:rgb(36,36,36);stop-opacity:1"/><stop offset="1" style="stop-color:rgb(18,18,18);stop-opacity:1"/></radialGradient>
        <linearGradient id="_Linear2" x1="0" y1="0" x2="1" y2="0" gradientUnits="userSpaceOnUse" gradientTransform="matrix(5.47495,0.565678,-0.565678,5.47495,-1333.534601,-57.099115)"><stop offset="0" style="stop-color:rgb(213,48,61);stop-opacity:1"/><stop offset="1" style="stop-color:rgb(148,8,18);stop-opacity:1"/></linearGradient>
        <linearGradient id="_Linear3" x1="0" y1="0" x2="1" y2="0" gradientUnits="userSpaceOnUse" gradientTransform="matrix(9.347997,6.242635,-6.242635,9.347997,-1335.116936,-68.285814)"><stop offset="0" style="stop-color:rgb(213,48,61);stop-opacity:1"/><stop offset="0.59" style="stop-color:rgb(213,48,61);stop-opacity:1"/><stop offset="1" style="stop-color:rgb(160,1,19);stop-opacity:1"/></linearGradient>
        <linearGradient id="_Linear4" x1="0" y1="0" x2="1" y2="0" gradientUnits="userSpaceOnUse" gradientTransform="matrix(-4.676533,2.902606,-2.902606,-4.676533,-1310.267132,-62.710481)"><stop offset="0" style="stop-color:rgb(213,48,61);stop-opacity:1"/><stop offset="1" style="stop-color:rgb(148,8,18);stop-opacity:1"/></linearGradient>
        <linearGradient id="_Linear5" x1="0" y1="0" x2="1" y2="0" gradientUnits="userSpaceOnUse" gradientTransform="matrix(-5.677546,9.701599,-9.701599,-5.677546,-1313.735337,-73.463043)"><stop offset="0" style="stop-color:rgb(213,48,61);stop-opacity:1"/><stop offset="0.59" style="stop-color:rgb(213,48,61);stop-opacity:1"/><stop offset="1" style="stop-color:rgb(160,1,19);stop-opacity:1"/></linearGradient>
        <linearGradient id="_Linear6" x1="0" y1="0" x2="1" y2="0" gradientUnits="userSpaceOnUse" gradientTransform="matrix(-5.47495,-0.565678,0.565678,-5.47495,-1310.781779,-64.084285)"><stop offset="0" style="stop-color:rgb(213,48,61);stop-opacity:1"/><stop offset="1" style="stop-color:rgb(148,8,18);stop-opacity:1"/></linearGradient>
        <linearGradient id="_Linear7" x1="0" y1="0" x2="1" y2="0" gradientUnits="userSpaceOnUse" gradientTransform="matrix(-9.347997,-6.242635,6.242635,-9.347997,-1309.199444,-52.897586)"><stop offset="0" style="stop-color:rgb(213,48,61);stop-opacity:1"/><stop offset="0.59" style="stop-color:rgb(213,48,61);stop-opacity:1"/><stop offset="1" style="stop-color:rgb(160,1,19);stop-opacity:1"/></linearGradient>
        <linearGradient id="_Linear8" x1="0" y1="0" x2="1" y2="0" gradientUnits="userSpaceOnUse" gradientTransform="matrix(4.676533,-2.902606,2.902606,4.676533,-1334.049368,-58.472919)"><stop offset="0" style="stop-color:rgb(213,48,61);stop-opacity:1"/><stop offset="1" style="stop-color:rgb(148,8,18);stop-opacity:1"/></linearGradient>
        <linearGradient id="_Linear9" x1="0" y1="0" x2="1" y2="0" gradientUnits="userSpaceOnUse" gradientTransform="matrix(5.677546,-9.701599,9.701599,5.677546,-1330.581163,-47.720357)"><stop offset="0" style="stop-color:rgb(213,48,61);stop-opacity:1"/><stop offset="0.59" style="stop-color:rgb(213,48,61);stop-opacity:1"/><stop offset="1" style="stop-color:rgb(160,1,19);stop-opacity:1"/></linearGradient>
        <radialGradient id="_Radial10" cx="0" cy="0" r="1" gradientUnits="userSpaceOnUse" gradientTransform="matrix(2.073275,2.274043,-2.018705,1.84048,-1554.861397,-52.779125)"><stop offset="0" style="stop-color:rgb(36,36,36);stop-opacity:1"/><stop offset="1" style="stop-color:rgb(18,18,18);stop-opacity:1"/></radialGradient>
        <linearGradient id="_Linear11" x1="0" y1="0" x2="1" y2="0" gradientUnits="userSpaceOnUse" gradientTransform="matrix(2.07733,2.81177,-2.81177,2.07733,-1561.446856,-56.63785)"><stop offset="0" style="stop-color:rgb(213,48,61);stop-opacity:1"/><stop offset="1" style="stop-color:rgb(148,8,18);stop-opacity:1"/></linearGradient>
        <linearGradient id="_Linear12" x1="0" y1="0" x2="1" y2="0" gradientUnits="userSpaceOnUse" gradientTransform="matrix(1.070161,7.058889,-7.058889,1.070161,-1556.873412,-62.16753)"><stop offset="0" style="stop-color:rgb(213,48,61);stop-opacity:1"/><stop offset="0.59" style="stop-color:rgb(213,48,61);stop-opacity:1"/><stop offset="1" style="stop-color:rgb(160,1,19);stop-opacity:1"/></linearGradient>
        <linearGradient id="_Linear13" x1="0" y1="0" x2="1" y2="0" gradientUnits="userSpaceOnUse" gradientTransform="matrix(-3.363534,-0.952884,0.952884,-3.363534,-1548.856494,-48.118341)"><stop offset="0" style="stop-color:rgb(213,48,61);stop-opacity:1"/><stop offset="1" style="stop-color:rgb(148,8,18);stop-opacity:1"/></linearGradient>
        <linearGradient id="_Linear14" x1="0" y1="0" x2="1" y2="0" gradientUnits="userSpaceOnUse" gradientTransform="matrix(-6.983042,1.486699,-1.486699,-6.983042,-1545.293813,-54.347389)"><stop offset="0" style="stop-color:rgb(213,48,61);stop-opacity:1"/><stop offset="0.59" style="stop-color:rgb(213,48,61);stop-opacity:1"/><stop offset="1" style="stop-color:rgb(160,1,19);stop-opacity:1"/></linearGradient>
        <linearGradient id="_Linear15" x1="0" y1="0" x2="1" y2="0" gradientUnits="userSpaceOnUse" gradientTransform="matrix(-2.07733,-2.81177,2.81177,-2.07733,-1548.431944,-48.94776)"><stop offset="0" style="stop-color:rgb(213,48,61);stop-opacity:1"/><stop offset="1" style="stop-color:rgb(148,8,18);stop-opacity:1"/></linearGradient>
        <linearGradient id="_Linear16" x1="0" y1="0" x2="1" y2="0" gradientUnits="userSpaceOnUse" gradientTransform="matrix(-1.070161,-7.058889,7.058889,-1.070161,-1553.005388,-43.41808)"><stop offset="0" style="stop-color:rgb(213,48,61);stop-opacity:1"/><stop offset="0.59" style="stop-color:rgb(213,48,61);stop-opacity:1"/><stop offset="1" style="stop-color:rgb(160,1,19);stop-opacity:1"/></linearGradient>
        <linearGradient id="_Linear17" x1="0" y1="0" x2="1" y2="0" gradientUnits="userSpaceOnUse" gradientTransform="matrix(3.363534,0.952884,-0.952884,3.363534,-1561.022306,-57.46738)"><stop offset="0" style="stop-color:rgb(213,48,61);stop-opacity:1"/><stop offset="1" style="stop-color:rgb(148,8,18);stop-opacity:1"/></linearGradient>
        <linearGradient id="_Linear18" x1="0" y1="0" x2="1" y2="0" gradientUnits="userSpaceOnUse" gradientTransform="matrix(6.983042,-1.486699,1.486699,6.983042,-1564.584987,-51.238332)"><stop offset="0" style="stop-color:rgb(213,48,61);stop-opacity:1"/><stop offset="0.59" style="stop-color:rgb(213,48,61);stop-opacity:1"/><stop offset="1" style="stop-color:rgb(160,1,19);stop-opacity:1"/></linearGradient>
        <radialGradient id="_Radial19" cx="0" cy="0" r="1" gradientUnits="userSpaceOnUse" gradientTransform="matrix(2.52773,-1.755084,1.558016,2.243907,-1149.564982,-13.525252)"><stop offset="0" style="stop-color:rgb(36,36,36);stop-opacity:1"/><stop offset="1" style="stop-color:rgb(18,18,18);stop-opacity:1"/></radialGradient>
        <linearGradient id="_Linear20" x1="0" y1="0" x2="1" y2="0" gradientUnits="userSpaceOnUse" gradientTransform="matrix(3.061291,-1.68815,1.68815,3.061291,-1154.258964,-7.506525)"><stop offset="0" style="stop-color:rgb(213,48,61);stop-opacity:1"/><stop offset="1" style="stop-color:rgb(148,8,18);stop-opacity:1"/></linearGradient>
        <linearGradient id="_Linear21" x1="0" y1="0" x2="1" y2="0" gradientUnits="userSpaceOnUse" gradientTransform="matrix(7.138377,-0.129376,0.129376,7.138377,-1159.136823,-12.769627)"><stop offset="0" style="stop-color:rgb(213,48,61);stop-opacity:1"/><stop offset="0.59" style="stop-color:rgb(213,48,61);stop-opacity:1"/><stop offset="1" style="stop-color:rgb(160,1,19);stop-opacity:1"/></linearGradient>
        <linearGradient id="_Linear22" x1="0" y1="0" x2="1" y2="0" gradientUnits="userSpaceOnUse" gradientTransform="matrix(-1.388374,3.208391,-3.208391,-1.388374,-1144.152605,-18.862638)"><stop offset="0" style="stop-color:rgb(213,48,61);stop-opacity:1"/><stop offset="1" style="stop-color:rgb(148,8,18);stop-opacity:1"/></linearGradient>
        <linearGradient id="_Linear23" x1="0" y1="0" x2="1" y2="0" gradientUnits="userSpaceOnUse" gradientTransform="matrix(0.552281,7.118156,-7.118156,0.552281,-1149.85709,-23.216097)"><stop offset="0" style="stop-color:rgb(213,48,61);stop-opacity:1"/><stop offset="0.59" style="stop-color:rgb(213,48,61);stop-opacity:1"/><stop offset="1" style="stop-color:rgb(160,1,19);stop-opacity:1"/></linearGradient>
        <linearGradient id="_Linear24" x1="0" y1="0" x2="1" y2="0" gradientUnits="userSpaceOnUse" gradientTransform="matrix(-3.061291,1.68815,-1.68815,-3.061291,-1144.918806,-19.392956)"><stop offset="0" style="stop-color:rgb(213,48,61);stop-opacity:1"/><stop offset="1" style="stop-color:rgb(148,8,18);stop-opacity:1"/></linearGradient>
        <linearGradient id="_Linear25" x1="0" y1="0" x2="1" y2="0" gradientUnits="userSpaceOnUse" gradientTransform="matrix(-7.138377,0.129376,-0.129376,-7.138377,-1140.040947,-14.129854)"><stop offset="0" style="stop-color:rgb(213,48,61);stop-opacity:1"/><stop offset="0.59" style="stop-color:rgb(213,48,61);stop-opacity:1"/><stop offset="1" style="stop-color:rgb(160,1,19);stop-opacity:1"/></linearGradient>
        <linearGradient id="_Linear26" x1="0" y1="0" x2="1" y2="0" gradientUnits="userSpaceOnUse" gradientTransform="matrix(1.388374,-3.208391,3.208391,1.388374,-1155.025195,-8.036822)"><stop offset="0" style="stop-color:rgb(213,48,61);stop-opacity:1"/><stop offset="1" style="stop-color:rgb(148,8,18);stop-opacity:1"/></linearGradient>
        <linearGradient id="_Linear27" x1="0" y1="0" x2="1" y2="0" gradientUnits="userSpaceOnUse" gradientTransform="matrix(-0.552281,-7.118156,7.118156,-0.552281,-1149.32071,-3.683363)"><stop offset="0" style="stop-color:rgb(213,48,61);stop-opacity:1"/><stop offset="0.59" style="stop-color:rgb(213,48,61);stop-opacity:1"/><stop offset="1" style="stop-color:rgb(160,1,19);stop-opacity:1"/></linearGradient>
        <radialGradient id="_Radial28" cx="0" cy="0" r="1" gradientUnits="userSpaceOnUse" gradientTransform="matrix(0.961508,1.314584,-1.166978,0.853546,-1631.309306,-58.930228)"><stop offset="0" style="stop-color:rgb(36,36,36);stop-opacity:1"/><stop offset="1" style="stop-color:rgb(18,18,18);stop-opacity:1"/></radialGradient>
        <linearGradient id="_Linear29" x1="0" y1="0" x2="1" y2="0" gradientUnits="userSpaceOnUse" gradientTransform="matrix(0.933037,1.597762,-1.597762,0.933037,-1634.554921,-61.335497)"><stop offset="0" style="stop-color:rgb(131,131,131);stop-opacity:1"/><stop offset="1" style="stop-color:rgb(78,78,78);stop-opacity:1"/></linearGradient>
        <linearGradient id="_Linear30" x1="0" y1="0" x2="1" y2="0" gradientUnits="userSpaceOnUse" gradientTransform="matrix(0.161343,3.775233,-3.775233,0.161343,-1631.833687,-63.984861)"><stop offset="0" style="stop-color:rgb(131,131,131);stop-opacity:1"/><stop offset="0.59" style="stop-color:rgb(131,131,131);stop-opacity:1"/><stop offset="1" style="stop-color:rgb(81,81,81);stop-opacity:1"/></linearGradient>
        <linearGradient id="_Linear31" x1="0" y1="0" x2="1" y2="0" gradientUnits="userSpaceOnUse" gradientTransform="matrix(-1.715626,-0.692838,0.692838,-1.715626,-1628.415047,-56.136076)"><stop offset="0" style="stop-color:rgb(130,130,130);stop-opacity:1"/><stop offset="1" style="stop-color:rgb(78,78,78);stop-opacity:1"/></linearGradient>
        <linearGradient id="_Linear32" x1="0" y1="0" x2="1" y2="0" gradientUnits="userSpaceOnUse" gradientTransform="matrix(-3.75903,0.38484,-0.38484,-3.75903,-1626.185864,-59.21097)"><stop offset="0" style="stop-color:rgb(130,130,130);stop-opacity:1"/><stop offset="0.59" style="stop-color:rgb(130,130,130);stop-opacity:1"/><stop offset="1" style="stop-color:rgb(81,81,81);stop-opacity:1"/></linearGradient>
        <linearGradient id="_Linear33" x1="0" y1="0" x2="1" y2="0" gradientUnits="userSpaceOnUse" gradientTransform="matrix(-0.933037,-1.597762,1.597762,-0.933037,-1628.144379,-56.548293)"><stop offset="0" style="stop-color:rgb(131,131,131);stop-opacity:1"/><stop offset="1" style="stop-color:rgb(78,78,78);stop-opacity:1"/></linearGradient>
        <linearGradient id="_Linear34" x1="0" y1="0" x2="1" y2="0" gradientUnits="userSpaceOnUse" gradientTransform="matrix(-0.161343,-3.775233,3.775233,-0.161343,-1630.865613,-53.898929)"><stop offset="0" style="stop-color:rgb(131,131,131);stop-opacity:1"/><stop offset="0.59" style="stop-color:rgb(131,131,131);stop-opacity:1"/><stop offset="1" style="stop-color:rgb(81,81,81);stop-opacity:1"/></linearGradient>
        <linearGradient id="_Linear35" x1="0" y1="0" x2="1" y2="0" gradientUnits="userSpaceOnUse" gradientTransform="matrix(1.715626,0.692838,-0.692838,1.715626,-1634.284353,-61.747765)"><stop offset="0" style="stop-color:rgb(131,131,131);stop-opacity:1"/><stop offset="1" style="stop-color:rgb(78,78,78);stop-opacity:1"/></linearGradient>
        <linearGradient id="_Linear36" x1="0" y1="0" x2="1" y2="0" gradientUnits="userSpaceOnUse" gradientTransform="matrix(3.75903,-0.38484,0.38484,3.75903,-1636.513536,-58.672871)"><stop offset="0" style="stop-color:rgb(130,130,130);stop-opacity:1"/><stop offset="0.59" style="stop-color:rgb(130,130,130);stop-opacity:1"/><stop offset="1" style="stop-color:rgb(81,81,81);stop-opacity:1"/></linearGradient>
    </defs>
</svg>
