<?xml version="1.0" encoding="UTF-8" standalone="no"?>
<!-- Created with Inkscape (http://www.inkscape.org/) -->

<svg
   width="508.2226mm"
   height="80.491966mm"
   viewBox="0 0 508.2226 80.491966"
   version="1.1"
   id="svg1"
   inkscape:version="1.3.2 (091e20e, 2023-11-25, custom)"
   sodipodi:docname="Full Sheet.svg"
   xml:space="preserve"
   inkscape:export-filename="Solo Poppy Cluster.svg"
   inkscape:export-xdpi="96"
   inkscape:export-ydpi="96"
   xmlns:inkscape="http://www.inkscape.org/namespaces/inkscape"
   xmlns:sodipodi="http://sodipodi.sourceforge.net/DTD/sodipodi-0.dtd"
   xmlns:xlink="http://www.w3.org/1999/xlink"
   xmlns="http://www.w3.org/2000/svg"
   xmlns:svg="http://www.w3.org/2000/svg"><sodipodi:namedview
     id="namedview1"
     pagecolor="#000000"
     bordercolor="#000000"
     borderopacity="0.25"
     inkscape:showpageshadow="2"
     inkscape:pageopacity="0.0"
     inkscape:pagecheckerboard="true"
     inkscape:deskcolor="#000000"
     inkscape:document-units="mm"
     showborder="false"
     inkscape:zoom="0.0625"
     inkscape:cx="-1720"
     inkscape:cy="-192"
     inkscape:window-width="2428"
     inkscape:window-height="1360"
     inkscape:window-x="0"
     inkscape:window-y="0"
     inkscape:window-maximized="0"
     inkscape:current-layer="layer1" /><defs
     id="defs1"><linearGradient
       id="linearGradient29"
       inkscape:collect="always"><stop
         style="stop-color:#242424;stop-opacity:1;"
         offset="0"
         id="stop29" /><stop
         style="stop-color:#121212;stop-opacity:1;"
         offset="1"
         id="stop30" /></linearGradient><linearGradient
       id="linearGradient16"
       inkscape:collect="always"><stop
         style="stop-color:#d5303d;stop-opacity:1;"
         offset="0"
         id="stop16" /><stop
         style="stop-color:#940812;stop-opacity:1;"
         offset="1"
         id="stop17" /></linearGradient><linearGradient
       id="linearGradient14"
       inkscape:collect="always"><stop
         style="stop-color:#d5303d;stop-opacity:1;"
         offset="0.58804524"
         id="stop14" /><stop
         style="stop-color:#a00113;stop-opacity:1;"
         offset="1"
         id="stop15" /></linearGradient><radialGradient
       inkscape:collect="always"
       xlink:href="#linearGradient29"
       id="radialGradient30-6"
       cx="-1546.2504"
       cy="-638.46552"
       fx="-1546.2504"
       fy="-638.46552"
       r="21.143938"
       gradientTransform="matrix(0.22914453,0,0,0.20341534,-967.74468,69.2057)"
       gradientUnits="userSpaceOnUse" /><linearGradient
       inkscape:collect="always"
       xlink:href="#linearGradient16"
       id="linearGradient38"
       gradientUnits="userSpaceOnUse"
       gradientTransform="matrix(0.22914453,0,0,0.22914453,-967.74468,40.94454)"
       x1="-1596.3284"
       y1="-427.86819"
       x2="-1572.4354"
       y2="-425.39954" /><linearGradient
       inkscape:collect="always"
       xlink:href="#linearGradient14"
       id="linearGradient39"
       gradientUnits="userSpaceOnUse"
       gradientTransform="matrix(0.22914453,0,0,0.22914453,-967.74468,40.94454)"
       x1="-1603.2338"
       y1="-476.68759"
       x2="-1562.4386"
       y2="-449.44437" /><linearGradient
       inkscape:collect="always"
       xlink:href="#linearGradient16"
       id="linearGradient40"
       gradientUnits="userSpaceOnUse"
       gradientTransform="matrix(-0.20608,0.10019111,0.10019111,0.20608,-1596.3699,185.40251)"
       x1="-1596.3284"
       y1="-427.86819"
       x2="-1572.4354"
       y2="-425.39954" /><linearGradient
       inkscape:collect="always"
       xlink:href="#linearGradient14"
       id="linearGradient41"
       gradientUnits="userSpaceOnUse"
       gradientTransform="matrix(-0.20608,0.10019111,0.10019111,0.20608,-1596.3699,185.40251)"
       x1="-1603.2338"
       y1="-476.68759"
       x2="-1562.4386"
       y2="-449.44437" /><linearGradient
       inkscape:collect="always"
       xlink:href="#linearGradient16"
       id="linearGradient42"
       gradientUnits="userSpaceOnUse"
       gradientTransform="matrix(-0.22914453,0,0,-0.22914453,-1676.5717,-162.12794)"
       x1="-1596.3284"
       y1="-427.86819"
       x2="-1572.4354"
       y2="-425.39954" /><linearGradient
       inkscape:collect="always"
       xlink:href="#linearGradient14"
       id="linearGradient43"
       gradientUnits="userSpaceOnUse"
       gradientTransform="matrix(-0.22914453,0,0,-0.22914453,-1676.5717,-162.12794)"
       x1="-1603.2338"
       y1="-476.68759"
       x2="-1562.4386"
       y2="-449.44437" /><linearGradient
       inkscape:collect="always"
       xlink:href="#linearGradient16"
       id="linearGradient44"
       gradientUnits="userSpaceOnUse"
       gradientTransform="matrix(0.20608,-0.10019111,-0.10019111,-0.20608,-1047.9466,-306.58591)"
       x1="-1596.3284"
       y1="-427.86819"
       x2="-1572.4354"
       y2="-425.39954" /><linearGradient
       inkscape:collect="always"
       xlink:href="#linearGradient14"
       id="linearGradient45"
       gradientUnits="userSpaceOnUse"
       gradientTransform="matrix(0.20608,-0.10019111,-0.10019111,-0.20608,-1047.9466,-306.58591)"
       x1="-1603.2338"
       y1="-476.68759"
       x2="-1562.4386"
       y2="-449.44437" /><linearGradient
       inkscape:collect="always"
       xlink:href="#linearGradient14"
       id="linearGradient53"
       gradientUnits="userSpaceOnUse"
       gradientTransform="matrix(0.13521089,0.05385145,0.05385145,-0.13521089,-1322.14,-29.35522)"
       x1="-1603.2338"
       y1="-476.68759"
       x2="-1562.4386"
       y2="-449.44437" /><linearGradient
       inkscape:collect="always"
       xlink:href="#linearGradient16"
       id="linearGradient54"
       gradientUnits="userSpaceOnUse"
       gradientTransform="matrix(0.13521089,0.05385145,0.05385145,-0.13521089,-1322.14,-29.35522)"
       x1="-1596.3284"
       y1="-427.86819"
       x2="-1572.4354"
       y2="-425.39954" /><linearGradient
       inkscape:collect="always"
       xlink:href="#linearGradient14"
       id="linearGradient55"
       gradientUnits="userSpaceOnUse"
       gradientTransform="matrix(-0.09805528,-0.10755058,0.10755058,-0.09805528,-1658.9429,-262.58854)"
       x1="-1603.2338"
       y1="-476.68759"
       x2="-1562.4386"
       y2="-449.44437" /><linearGradient
       inkscape:collect="always"
       xlink:href="#linearGradient16"
       id="linearGradient56"
       gradientUnits="userSpaceOnUse"
       gradientTransform="matrix(-0.09805528,-0.10755058,0.10755058,-0.09805528,-1658.9429,-262.58854)"
       x1="-1596.3284"
       y1="-427.86819"
       x2="-1572.4354"
       y2="-425.39954" /><linearGradient
       inkscape:collect="always"
       xlink:href="#linearGradient14"
       id="linearGradient57"
       gradientUnits="userSpaceOnUse"
       gradientTransform="matrix(-0.13521089,-0.05385145,-0.05385145,0.13521089,-1787.7388,-76.230501)"
       x1="-1603.2338"
       y1="-476.68759"
       x2="-1562.4386"
       y2="-449.44437" /><linearGradient
       inkscape:collect="always"
       xlink:href="#linearGradient16"
       id="linearGradient58"
       gradientUnits="userSpaceOnUse"
       gradientTransform="matrix(-0.13521089,-0.05385145,-0.05385145,0.13521089,-1787.7388,-76.230501)"
       x1="-1596.3284"
       y1="-427.86819"
       x2="-1572.4354"
       y2="-425.39954" /><linearGradient
       inkscape:collect="always"
       xlink:href="#linearGradient14"
       id="linearGradient59"
       gradientUnits="userSpaceOnUse"
       gradientTransform="matrix(0.09805528,0.10755058,-0.10755058,0.09805528,-1450.9359,157.00293)"
       x1="-1603.2338"
       y1="-476.68759"
       x2="-1562.4386"
       y2="-449.44437" /><linearGradient
       inkscape:collect="always"
       xlink:href="#linearGradient16"
       id="linearGradient60"
       gradientUnits="userSpaceOnUse"
       gradientTransform="matrix(0.09805528,0.10755058,-0.10755058,0.09805528,-1450.9359,157.00293)"
       x1="-1596.3284"
       y1="-427.86819"
       x2="-1572.4354"
       y2="-425.39954" /><radialGradient
       inkscape:collect="always"
       xlink:href="#linearGradient29"
       id="radialGradient60"
       gradientUnits="userSpaceOnUse"
       gradientTransform="matrix(0.09805528,0.10755058,-0.09547441,0.08704526,-1464.2005,169.0964)"
       cx="-1546.2504"
       cy="-638.46552"
       fx="-1546.2504"
       fy="-638.46552"
       r="21.143938" /><radialGradient
       inkscape:collect="always"
       xlink:href="#linearGradient29"
       id="radialGradient60-7"
       gradientUnits="userSpaceOnUse"
       gradientTransform="matrix(0.11954868,-0.0830065,0.0736862,0.1061253,-917.66669,-74.116741)"
       cx="-1546.2504"
       cy="-638.46552"
       fx="-1546.2504"
       fy="-638.46552"
       r="21.143938" /><linearGradient
       inkscape:collect="always"
       xlink:href="#linearGradient16"
       id="linearGradient68"
       gradientUnits="userSpaceOnUse"
       gradientTransform="matrix(0.11954868,-0.0830065,0.0830065,0.11954868,-927.90417,-88.861081)"
       x1="-1596.3284"
       y1="-427.86819"
       x2="-1572.4354"
       y2="-425.39954" /><linearGradient
       inkscape:collect="always"
       xlink:href="#linearGradient14"
       id="linearGradient69"
       gradientUnits="userSpaceOnUse"
       gradientTransform="matrix(0.11954868,-0.0830065,0.0830065,0.11954868,-927.90417,-88.861081)"
       x1="-1603.2338"
       y1="-476.68759"
       x2="-1562.4386"
       y2="-449.44437" /><linearGradient
       inkscape:collect="always"
       xlink:href="#linearGradient16"
       id="linearGradient70"
       gradientUnits="userSpaceOnUse"
       gradientTransform="matrix(-0.07122179,0.1269229,0.1269229,0.07122179,-1203.5397,214.22153)"
       x1="-1596.3284"
       y1="-427.86819"
       x2="-1572.4354"
       y2="-425.39954" /><linearGradient
       inkscape:collect="always"
       xlink:href="#linearGradient14"
       id="linearGradient71"
       gradientUnits="userSpaceOnUse"
       gradientTransform="matrix(-0.07122179,0.1269229,0.1269229,0.07122179,-1203.5397,214.22153)"
       x1="-1603.2338"
       y1="-476.68759"
       x2="-1562.4386"
       y2="-449.44437" /><linearGradient
       inkscape:collect="always"
       xlink:href="#linearGradient16"
       id="linearGradient72"
       gradientUnits="userSpaceOnUse"
       gradientTransform="matrix(-0.11954868,0.0830065,-0.0830065,-0.11954868,-1371.2736,61.9616)"
       x1="-1596.3284"
       y1="-427.86819"
       x2="-1572.4354"
       y2="-425.39954" /><linearGradient
       inkscape:collect="always"
       xlink:href="#linearGradient14"
       id="linearGradient73"
       gradientUnits="userSpaceOnUse"
       gradientTransform="matrix(-0.11954868,0.0830065,-0.0830065,-0.11954868,-1371.2736,61.9616)"
       x1="-1603.2338"
       y1="-476.68759"
       x2="-1562.4386"
       y2="-449.44437" /><linearGradient
       inkscape:collect="always"
       xlink:href="#linearGradient16"
       id="linearGradient74"
       gradientUnits="userSpaceOnUse"
       gradientTransform="matrix(0.07122179,-0.1269229,-0.1269229,-0.07122179,-1095.6381,-241.12099)"
       x1="-1596.3284"
       y1="-427.86819"
       x2="-1572.4354"
       y2="-425.39954" /><linearGradient
       inkscape:collect="always"
       xlink:href="#linearGradient14"
       id="linearGradient75"
       gradientUnits="userSpaceOnUse"
       gradientTransform="matrix(0.07122179,-0.1269229,-0.1269229,-0.07122179,-1095.6381,-241.12099)"
       x1="-1603.2338"
       y1="-476.68759"
       x2="-1562.4386"
       y2="-449.44437" /><radialGradient
       inkscape:collect="always"
       xlink:href="#linearGradient29"
       id="radialGradient90"
       gradientUnits="userSpaceOnUse"
       gradientTransform="matrix(0.04547442,0.06217309,-0.05519207,0.04036837,-1596.2327,62.97875)"
       cx="-1546.2504"
       cy="-638.46552"
       fx="-1546.2504"
       fy="-638.46552"
       r="21.143938" /><linearGradient
       inkscape:collect="always"
       xlink:href="#linearGradient102"
       id="linearGradient91"
       gradientUnits="userSpaceOnUse"
       gradientTransform="matrix(0.04547442,0.06217309,-0.06217309,0.04547442,-1588.5647,57.37023)"
       x1="-1596.3284"
       y1="-427.86819"
       x2="-1572.4354"
       y2="-425.39954" /><linearGradient
       id="linearGradient102"
       inkscape:collect="always"><stop
         style="stop-color:#838383;stop-opacity:1;"
         offset="0"
         id="stop101" /><stop
         style="stop-color:#4e4e4e;stop-opacity:1;"
         offset="1"
         id="stop102" /></linearGradient><linearGradient
       inkscape:collect="always"
       xlink:href="#linearGradient100"
       id="linearGradient89"
       gradientUnits="userSpaceOnUse"
       gradientTransform="matrix(0.04547442,0.06217309,-0.06217309,0.04547442,-1588.5647,57.37023)"
       x1="-1603.2338"
       y1="-476.68759"
       x2="-1562.4386"
       y2="-449.44437" /><linearGradient
       id="linearGradient100"
       inkscape:collect="always"><stop
         style="stop-color:#838383;stop-opacity:1;"
         offset="0.58804524"
         id="stop99" /><stop
         style="stop-color:#515151;stop-opacity:1;"
         offset="1"
         id="stop100" /></linearGradient><linearGradient
       inkscape:collect="always"
       xlink:href="#linearGradient96"
       id="linearGradient88"
       gradientUnits="userSpaceOnUse"
       gradientTransform="matrix(-0.06808172,-0.03603182,-0.03603182,0.06808172,-1752.5127,-84.524691)"
       x1="-1596.3284"
       y1="-427.86819"
       x2="-1572.4354"
       y2="-425.39954" /><linearGradient
       id="linearGradient96"
       inkscape:collect="always"><stop
         style="stop-color:#828282;stop-opacity:1;"
         offset="0"
         id="stop95" /><stop
         style="stop-color:#4e4e4e;stop-opacity:1;"
         offset="1"
         id="stop96" /></linearGradient><linearGradient
       inkscape:collect="always"
       xlink:href="#linearGradient98"
       id="linearGradient87"
       gradientUnits="userSpaceOnUse"
       gradientTransform="matrix(-0.06808172,-0.03603182,-0.03603182,0.06808172,-1752.5127,-84.524691)"
       x1="-1603.2338"
       y1="-476.68759"
       x2="-1562.4386"
       y2="-449.44437" /><linearGradient
       id="linearGradient98"
       inkscape:collect="always"><stop
         style="stop-color:#828282;stop-opacity:1;"
         offset="0.58804524"
         id="stop97" /><stop
         style="stop-color:#515151;stop-opacity:1;"
         offset="1"
         id="stop98" /></linearGradient><linearGradient
       inkscape:collect="always"
       xlink:href="#linearGradient102"
       id="linearGradient86"
       gradientUnits="userSpaceOnUse"
       gradientTransform="matrix(-0.04547442,-0.06217309,0.06217309,-0.04547442,-1674.1346,-175.25402)"
       x1="-1596.3284"
       y1="-427.86819"
       x2="-1572.4354"
       y2="-425.39954" /><linearGradient
       inkscape:collect="always"
       xlink:href="#linearGradient100"
       id="linearGradient85"
       gradientUnits="userSpaceOnUse"
       gradientTransform="matrix(-0.04547442,-0.06217309,0.06217309,-0.04547442,-1674.1346,-175.25402)"
       x1="-1603.2338"
       y1="-476.68759"
       x2="-1562.4386"
       y2="-449.44437" /><linearGradient
       inkscape:collect="always"
       xlink:href="#linearGradient102"
       id="linearGradient84"
       gradientUnits="userSpaceOnUse"
       gradientTransform="matrix(0.06808172,0.03603182,0.03603182,-0.06808172,-1510.1867,-33.35915)"
       x1="-1596.3284"
       y1="-427.86819"
       x2="-1572.4354"
       y2="-425.39954" /><linearGradient
       inkscape:collect="always"
       xlink:href="#linearGradient98"
       id="linearGradient83"
       gradientUnits="userSpaceOnUse"
       gradientTransform="matrix(0.06808172,0.03603182,0.03603182,-0.06808172,-1510.1867,-33.35915)"
       x1="-1603.2338"
       y1="-476.68759"
       x2="-1562.4386"
       y2="-449.44437" /></defs><g
     inkscape:label="Layer 1"
     inkscape:groupmode="layer"
     id="layer1"
     transform="translate(1638.5517,73.268293)"><path
       d="m -1136.1007,-44.7207 c -6.6398,0 -11.8326,1.82174 -15.5782,5.46514 -2.1451,2.07711 -3.5753,4.17122 -4.2903,6.28236 -0.681,2.11115 -1.1578,5.7716 -1.4302,10.98136 -0.2042,3.20075 -0.9704,5.44811 -2.2984,6.74205 -1.2939,1.25987 -3.4732,1.8898 -6.5377,1.8898 h -0.8683 V 6.8661401 h 2.6559 c 6.5718,0 11.6454,-1.05557 15.2207,-3.16671 6.742,-4.05204003 10.5557,-10.99839 11.441,-20.8390501 0.2725,-2.96241 0.9024,-4.93734 1.8899,-5.92482 1.0215,-1.02151 2.8772,-1.53228 5.5672,-1.53228 V -44.7207 Z"
       style="font-size:50.8px;font-family:'Bauhaus 93';-inkscape-font-specification:'Bauhaus 93, ';text-align:center;text-anchor:middle;fill:#ffffff;fill-opacity:1;fill-rule:evenodd;stroke:#db8b7d;stroke-width:0;stroke-linecap:round;stroke-linejoin:round;stroke-opacity:0.331492"
       id="path11" /><path
       d="m -1423.6078,-44.7207 c -6.6399,0 -11.8326,1.82174 -15.5782,5.46514 -2.1452,2.07711 -3.5753,4.17122 -4.2904,6.28236 -0.681,2.11115 -1.1577,5.7716 -1.4301,10.98136 -0.2043,3.20075 -0.9705,5.44811 -2.2985,6.74205 -1.2939,1.25987 -3.4731,1.8898 -6.5377,1.8898 h -0.8683 V 6.8661401 h 2.656 c 6.5718,0 11.6453,-1.05557 15.2206,-3.16671 6.7421,-4.05204003 10.5558,-10.99839 11.4411,-20.8390501 0.2724,-2.96241 0.9023,-4.93734 1.8898,-5.92482 1.0215,-1.02151 2.8773,-1.53228 5.5673,-1.53228 V -44.7207 Z"
       style="font-size:50.8px;font-family:'Bauhaus 93';-inkscape-font-specification:'Bauhaus 93, ';text-align:center;text-anchor:middle;fill:#ffffff;fill-opacity:1;fill-rule:evenodd;stroke:#db8b7d;stroke-width:0;stroke-linecap:round;stroke-linejoin:round;stroke-opacity:0.331492"
       id="path10" /><path
       d="m -1506.3,-44.7207 v 26.86602 c 0,7.32089 1.7196,13.0414201 5.1587,17.16155007 4.4266,5.27786003 10.2663,7.91680003 17.5191,7.91680003 6.3675,0 11.7475,-2.26438 16.1401,-6.79311003 4.3925,-4.56279997 6.5888,-10.14711997 6.5888,-16.75295007 V -44.7207 h -19.1025 v 28.75583 c 0,2.89431 -1.1918,4.34147 -3.5753,4.34147 -2.4176,0 -3.6264,-1.44716 -3.6264,-4.34147 V -44.7207 Z"
       style="font-size:50.8px;font-family:'Bauhaus 93';-inkscape-font-specification:'Bauhaus 93, ';text-align:center;text-anchor:middle;fill:#ffffff;fill-opacity:1;fill-rule:evenodd;stroke:#db8b7d;stroke-width:0;stroke-linecap:round;stroke-linejoin:round;stroke-opacity:0.331492"
       id="path9" /><path
       d="M -1331.6198,-45.43575 V 5.4870801 h 19.1024 V -45.43575 Z"
       style="font-size:50.8px;font-family:'Bauhaus 93';-inkscape-font-specification:'Bauhaus 93, ';text-align:center;text-anchor:middle;fill:#ffffff;fill-opacity:1;fill-rule:evenodd;stroke:#db8b7d;stroke-width:0;stroke-linecap:round;stroke-linejoin:round;stroke-opacity:0.331492"
       id="path8" /><path
       d="m -1594.5897,-55.257591 v 16.705531 c 0,2.84199 0.7993,5.18662 2.398,7.03391 1.5986,1.82953 3.6324,2.7443 6.1014,2.7443 1.6696,0 3.3748,-0.51511 5.1155,-1.54533 -0.9591,3.6413 -3.0551,5.46194 -6.2879,5.46194 -1.0124,0 -2.1936,-0.2842 -3.5436,-0.8526 v 8.65917 c 1.8296,0.71051 3.668,1.06575 5.5153,1.06575 4.2096,0 7.7976,-1.61638 10.764,-4.84915 2.4867,-2.71764 3.7301,-6.28788 3.7301,-10.71073 v -23.712791 h -9.9647 v 14.041161 c 0,1.74073 -0.6306,2.61108 -1.8917,2.61108 -1.3144,0 -1.9717,-0.79044 -1.9717,-2.37127 v -14.280971 z"
       style="font-size:50.8px;font-family:'Bauhaus 93';-inkscape-font-specification:'Bauhaus 93, ';text-align:center;text-anchor:middle;fill:#d7353e;fill-opacity:1;fill-rule:evenodd;stroke:#db8b7d;stroke-width:0;stroke-linecap:round;stroke-linejoin:round;stroke-opacity:0.331492"
       id="path7" /><path
       d="m -1281.5142,-46.45728 c -5.4822,0 -10.1471,2.00901 -13.9949,6.02699 -3.8477,3.98392 -5.7716,8.83615 -5.7716,14.55666 V 5.4870801 h 19.1025 V -21.94077 c 0,-3.77962 1.0556,-5.66944 3.1667,-5.66944 1.1578,0 1.9579,0.40861 2.4006,1.22584 0.4767,0.8172 0.7151,2.28139 0.7151,4.39253 V 5.4870801 h 19.1024 V -21.94077 c 0,-3.77962 1.0726,-5.66944 3.2178,-5.66944 1.1577,0 1.9579,0.40861 2.4006,1.22584 0.4426,0.8172 0.664,2.28139 0.664,4.39253 V 5.4870801 h 19.1024 V -23.72842 c 0,-6.9123 -1.5152,-12.17315 -4.5458,-15.78251 -3.8477,-4.63088 -8.9553,-6.94635 -15.3228,-6.94635 -5.0054,0 -10.0109,2.38356 -15.0163,7.15065 -4.4947,-4.76709 -9.5683,-7.15065 -15.2207,-7.15065 z"
       style="font-size:50.8px;font-family:'Bauhaus 93';-inkscape-font-specification:'Bauhaus 93, ';text-align:center;text-anchor:middle;fill:#ffffff;fill-opacity:1;fill-rule:evenodd;stroke:#db8b7d;stroke-width:0;stroke-linecap:round;stroke-linejoin:round;stroke-opacity:0.331492"
       id="path6" /><path
       d="m -1196.115,-46.55944 c -7.5593,0 -13.9438,2.57085 -19.1535,7.71249 -5.1757,5.14165 -7.7636,11.44106 -7.7636,18.89816 0,7.49113 2.5708,13.7735201 7.7125,18.8470701 5.1416,5.07355 11.4921,7.61032 19.0513,7.61032 6.1973,0 11.8327,-1.99196 16.9062,-5.97589003 L -1190.2413,-12.54276 c -1.7706,1.90684 -3.6093,2.8602601 -5.5162,2.8602601 -2.3495,0 -4.2563,-1.0215401 -5.7205,-3.0645701 -1.4301,-2.04304 -2.1452,-4.71602 -2.1452,-8.01895 0,-3.16671 0.7491,-5.75456 2.2473,-7.76355 1.4983,-2.04305 3.4392,-3.06457 5.8227,-3.06457 3.5753,0 5.7035,1.88981 6.3845,5.66945 h -9.7044 c -0.6129,1.63443 -0.9194,3.30292 -0.9194,5.00545 0,1.22582 0.2213,2.57083 0.664,4.03501 h 28.9601 c 0.1361,-1.63443 0.2043,-2.82622 0.2043,-3.57533 0,-7.35494 -2.5198,-13.53515 -7.5593,-18.54061 -5.0054,-5.03951 -11.2027,-7.55927 -18.5917,-7.55927 z"
       style="font-size:50.8px;font-family:'Bauhaus 93';-inkscape-font-specification:'Bauhaus 93, ';text-align:center;text-anchor:middle;fill:#ffffff;fill-opacity:1;fill-rule:evenodd;stroke:#db8b7d;stroke-width:0;stroke-linecap:round;stroke-linejoin:round;stroke-opacity:0.331492"
       id="path5" /><path
       d="m -1390.3062,-64.231751 v 20.021821 h 15.8846 V 5.4870801 h 20.7369 V -44.20993 h 15.8336 v -20.021821 z"
       style="font-size:50.8px;font-family:'Bauhaus 93';-inkscape-font-specification:'Bauhaus 93, ';text-align:center;text-anchor:middle;fill:#ffffff;fill-opacity:1;fill-rule:evenodd;stroke:#db8b7d;stroke-width:0;stroke-linecap:round;stroke-linejoin:round;stroke-opacity:0.331492"
       id="path4" /><path
       d="M -1564.5777,-64.231751 V 5.4870801 h 20.7368 V -45.5379 h 3.8307 c 3.4391,0 5.1587,1.20879 5.1587,3.62639 0,2.62191 -1.9068,3.93286 -5.7205,3.93286 v 18.59169 h 3.9839 c 3.4732,0 5.2098,1.12367 5.2098,3.37103 0,1.32797 -0.4256,2.26436 -1.2769,2.80918 -0.8513,0.51075 -2.3155,0.76614 -4.3925,0.76614 h -3.5243 V 5.4870801 h 3.9329 c 4.1541,0 7.4571,-0.35752 9.9087,-1.0726 2.4517,-0.71505 4.7501,-1.97493 6.8953,-3.77961003 4.3925,-3.77963997 6.5888,-8.85320997 6.5888,-15.22068007 0,-8.30836 -3.7286,-14.07998 -11.1857,-17.31479 5.1417,-3.88176 7.7125,-8.75103 7.7125,-14.60775 0,-11.815591 -7.5082,-17.723401 -22.5245,-17.723401 z"
       style="font-size:50.8px;font-family:'Bauhaus 93';-inkscape-font-specification:'Bauhaus 93, ';text-align:center;text-anchor:middle;fill:#ffffff;fill-opacity:1;fill-rule:evenodd;stroke:#db8b7d;stroke-width:0;stroke-linecap:round;stroke-linejoin:round;stroke-opacity:0.331492"
       id="path3" /><path
       d="m -1627.9208,-65.968341 c -3.1439,0 -5.7018,1.03022 -7.6733,3.09067 -1.9717,2.06043 -2.9576,4.71592 -2.9576,7.96642 v 26.217321 h 10.8173 v -23.659531 c 0,-1.93609 0.5329,-2.90413 1.5987,-2.90413 0.5684,0 0.9503,0.19541 1.1456,0.58615 0.1955,0.39076 0.2932,1.16343 0.2932,2.31798 v 23.659531 h 10.8173 v -23.846021 c 0,-1.81177 0.5328,-2.71764 1.5986,-2.71764 0.5684,0 0.9414,0.19541 1.119,0.58615 0.1954,0.37301 0.2931,1.14566 0.2931,2.31798 v 23.659531 h 10.8173 v -25.284781 c 0,-3.87219 -0.8704,-6.83853 -2.6111,-8.89896 -1.7407,-2.06045 -4.2452,-3.09067 -7.5135,-3.09067 -2.0604,0 -3.7923,0.39966 -5.1955,1.19897 -1.4033,0.78154 -2.7177,2.09597 -3.9433,3.94325 -2.0071,-3.42814 -4.8757,-5.14222 -8.6058,-5.14222 z"
       style="font-size:50.8px;font-family:'Bauhaus 93';-inkscape-font-specification:'Bauhaus 93, ';text-align:center;text-anchor:middle;fill:#d7353e;fill-opacity:1;fill-rule:evenodd;stroke:#db8b7d;stroke-width:0;stroke-linecap:round;stroke-linejoin:round;stroke-opacity:0.331492"
       id="path2" /><path
       style="fill:url(#radialGradient30-6);fill-opacity:1;fill-rule:evenodd;stroke:#db8b7d;stroke-width:0;stroke-linecap:round;stroke-linejoin:round;stroke-opacity:0.331492"
       d="m -1325.6812,-62.939341 c -0.5392,0.62101 -1.0562,1.35709 -1.1714,2.17139 -0.1447,1.02282 -0.01,2.23684 0.6571,3.02853 0.7737,0.92305 2.1387,1.34624 3.3428,1.3714 1.2861,0.027 2.645,-0.48511 3.6285,-1.31428 1.0305,-0.86875 1.8932,-2.17063 2,-3.51421 0.077,-0.97339 -0.3145,-2.07678 -1.0286,-2.7428 -0.8792,-0.82007 -2.2549,-1.04814 -3.4571,-1.02856 -0.7829,0.0103 -1.5334,0.38217 -2.2284,0.74285 -0.6408,0.33249 -1.2696,0.74057 -1.7429,1.28568 z"
       id="path30"
       sodipodi:nodetypes="ssssssssss" /><path
       style="fill:url(#linearGradient38);fill-opacity:1;fill-rule:evenodd;stroke:#db8b7d;stroke-width:0;stroke-linecap:round;stroke-linejoin:round;stroke-opacity:0.331492"
       d="m -1325.9955,-57.425171 c 0,0 -0.5925,0.61708 -0.9428,0.85713 -0.6851,0.46946 -1.4247,0.90544 -2.2286,1.11428 -0.6182,0.16061 -1.2813,0.17152 -1.9142,0.0857 -0.8237,-0.11161 -1.6245,-0.4066 -2.3714,-0.7714 -0.7643,-0.3733 -1.6067,-0.74604 -2.1142,-1.42856 -0.5537,-0.7445 -0.7462,-1.733 -0.8286,-2.6571 -0.075,-0.84126 0.106,-1.69573 0.3143,-2.51424 0.27,-1.0609 1.2,-3.05708 1.2,-3.05708 0,0 -0.1606,1.44894 -0.2572,2.17137 -0.1198,0.89712 -0.4331,1.78119 -0.4,2.68568 0.032,0.86817 0.1337,1.79245 0.5714,2.54282 0.4078,0.69883 1.1022,1.21907 1.8,1.62854 0.6416,0.37643 1.3705,0.69791 2.1143,0.71425 1.13,0.0249 2.1641,-0.65472 3.2571,-0.94281 0.5964,-0.15732 1.7999,-0.42859 1.7999,-0.42859 z"
       id="path31"
       sodipodi:nodetypes="cssssssscssssssc" /><path
       style="fill:url(#linearGradient39);fill-opacity:1;fill-rule:evenodd;stroke:#db8b7d;stroke-width:0;stroke-linecap:round;stroke-linejoin:round;stroke-opacity:0.331492"
       d="m -1326.7954,-57.796581 c -0.6093,1.07515 -2.3661,0.81714 -3.6,0.88569 -0.8056,0.0449 -1.6648,0.0185 -2.4,-0.31426 -0.6457,-0.29188 -1.202,-0.8136 -1.5999,-1.39998 -0.4483,-0.66047 -0.7344,-1.46159 -0.8,-2.2571 -0.1295,-1.5714 0.3157,-3.16607 0.8285,-4.65707 0.3645,-1.0595 0.8307,-2.13077 1.5714,-2.97136 0.8543,-0.96936 2.0124,-1.6576 3.1714,-2.22854 0.8593,-0.42329 1.785,-0.86411 2.7428,-0.85711 0.7017,0.004 1.442,0.23155 2,0.65711 0.7267,0.55423 1.1855,1.43295 1.5142,2.28567 0.4332,1.12353 1.0872,2.49725 0.5429,3.57138 -0.3158,0.62317 -1.2672,0.59708 -1.8571,0.97141 -0.5854,0.37149 -1.2058,0.73079 -1.6571,1.25712 -0.43,0.50138 -0.7858,1.10127 -0.9429,1.74281 -0.1449,0.59212 -0.067,1.22646 0.029,1.82855 0.081,0.51177 0.7126,1.03487 0.4572,1.48568 z"
       id="path32"
       sodipodi:nodetypes="sssssssssssssssss" /><path
       style="fill:url(#linearGradient40);fill-opacity:1;fill-rule:evenodd;stroke:#db8b7d;stroke-width:0;stroke-linecap:round;stroke-linejoin:round;stroke-opacity:0.331492"
       d="m -1317.19,-59.707271 c 0,0 0.8026,0.2959 1.2227,0.35862 0.8214,0.12252 1.6772,0.1915 2.4914,0.0276 0.6263,-0.12581 1.2274,-0.40597 1.7591,-0.75992 0.6919,-0.46069 1.2832,-1.07598 1.7954,-1.73061 0.5241,-0.6699 1.1188,-1.37349 1.2768,-2.20922 0.1723,-0.9116 -0.087,-1.88481 -0.4166,-2.75193 -0.3004,-0.78939 -0.8368,-1.4787 -1.382,-2.12374 -0.7067,-0.83607 -2.4159,-2.22469 -2.4159,-2.22469 0,0 0.778,1.23289 1.1807,1.84037 0.5001,0.75438 1.1683,1.4125 1.534,2.24046 0.351,0.79464 0.6636,1.67047 0.5979,2.5367 -0.061,0.80683 -0.4581,1.57826 -0.9067,2.25164 -0.4124,0.61914 -0.9275,1.22691 -1.5891,1.56681 -1.0055,0.51645 -2.2327,0.35742 -3.3415,0.57621 -0.6051,0.11943 -1.8062,0.40159 -1.8062,0.40159 z"
       id="path33"
       sodipodi:nodetypes="cssssssscssssssc" /><path
       style="fill:url(#linearGradient41);fill-opacity:1;fill-rule:evenodd;stroke:#db8b7d;stroke-width:0;stroke-linecap:round;stroke-linejoin:round;stroke-opacity:0.331492"
       d="m -1316.6329,-60.391061 c 1.018,0.70051 2.4852,-0.29967 3.6248,-0.77751 0.7441,-0.312 1.5051,-0.71161 2.021,-1.33201 0.4531,-0.54487 0.7252,-1.25726 0.8268,-1.95862 0.1143,-0.79001 0.021,-1.63557 -0.2675,-2.37972 -0.5705,-1.46987 -1.6682,-2.7093 -2.7814,-3.82601 -0.7909,-0.79354 -1.6786,-1.55313 -2.7124,-1.98522 -1.1921,-0.49825 -2.5345,-0.61084 -3.8266,-0.61758 -0.9578,-0.004 -1.9831,0.002 -2.8415,0.42843 -0.6288,0.31134 -1.1955,0.83878 -1.5113,1.46546 -0.4112,0.8162 -0.4396,1.80705 -0.3624,2.7177 0.1017,1.19981 0.1141,2.72122 1.0733,3.44923 0.5564,0.42236 1.4007,-0.0185 2.0949,0.0616 0.689,0.0783 1.404,0.13014 2.04,0.40604 0.6059,0.26291 1.1882,0.64684 1.61,1.15518 0.3892,0.46907 0.5963,1.07381 0.7738,1.65696 0.1509,0.49571 -0.1882,1.24229 0.2385,1.53602 z"
       id="path34"
       sodipodi:nodetypes="sssssssssssssssss" /><path
       style="fill:url(#linearGradient42);fill-opacity:1;fill-rule:evenodd;stroke:#db8b7d;stroke-width:0;stroke-linecap:round;stroke-linejoin:round;stroke-opacity:0.331492"
       d="m -1318.3211,-63.758301 c 0,0 0.5925,-0.61703 0.9429,-0.85713 0.6851,-0.46942 1.4247,-0.90542 2.2285,-1.11426 0.6182,-0.16061 1.2814,-0.17152 1.9143,-0.0857 0.8237,0.11182 1.6245,0.4066 2.3714,0.77142 0.7642,0.3733 1.6067,0.74602 2.1142,1.42854 0.5537,0.74446 0.7462,1.733 0.8286,2.65708 0.075,0.84128 -0.1061,1.69573 -0.3143,2.51426 -0.27,1.0609 -1.2,3.05708 -1.2,3.05708 0,0 0.1606,-1.44896 0.2572,-2.17139 0.1198,-0.89712 0.4331,-1.78117 0.3999,-2.68566 -0.032,-0.86817 -0.1336,-1.79247 -0.5714,-2.5428 -0.4078,-0.69887 -1.1021,-1.21909 -1.8,-1.62856 -0.6415,-0.37645 -1.3705,-0.69791 -2.1142,-0.71425 -1.13,-0.0249 -2.1641,0.6547 -3.2571,0.94283 -0.5964,0.15732 -1.8,0.42857 -1.8,0.42857 z"
       id="path35"
       sodipodi:nodetypes="cssssssscssssssc" /><path
       style="fill:url(#linearGradient43);fill-opacity:1;fill-rule:evenodd;stroke:#db8b7d;stroke-width:0;stroke-linecap:round;stroke-linejoin:round;stroke-opacity:0.331492"
       d="m -1317.5211,-63.386871 c 0.6093,-1.07515 2.3661,-0.81712 3.6,-0.88569 0.8056,-0.0449 1.6648,-0.0185 2.3999,0.31428 0.6458,0.29188 1.202,0.8136 1.6,1.39996 0.4483,0.66047 0.7344,1.46159 0.8,2.25712 0.1295,1.5714 -0.3157,3.16603 -0.8286,4.65705 -0.3644,1.05952 -0.8306,2.13079 -1.5714,2.97138 -0.8542,0.96934 -2.0123,1.6576 -3.1713,2.22854 -0.8593,0.42329 -1.785,0.86411 -2.7428,0.85711 -0.7018,-0.004 -1.4421,-0.23159 -2,-0.65713 -0.7267,-0.55423 -1.1855,-1.43293 -1.5143,-2.28567 -0.4331,-1.12351 -1.0871,-2.49725 -0.5428,-3.57136 0.3157,-0.62317 1.2672,-0.5971 1.8571,-0.97141 0.5854,-0.37149 1.2058,-0.73081 1.6571,-1.25712 0.43,-0.5014 0.7858,-1.10127 0.9429,-1.74281 0.1449,-0.59212 0.067,-1.22648 -0.029,-1.82855 -0.081,-0.51177 -0.7126,-1.03489 -0.4572,-1.4857 z"
       id="path36"
       sodipodi:nodetypes="sssssssssssssssss" /><path
       style="fill:url(#linearGradient44);fill-opacity:1;fill-rule:evenodd;stroke:#db8b7d;stroke-width:0;stroke-linecap:round;stroke-linejoin:round;stroke-opacity:0.331492"
       d="m -1327.1265,-61.476181 c 0,0 -0.8027,-0.2959 -1.2227,-0.3586 -0.8214,-0.12252 -1.6772,-0.1915 -2.4915,-0.0276 -0.6262,0.12581 -1.2273,0.40595 -1.759,0.7599 -0.6919,0.46071 -1.2832,1.076 -1.7954,1.73064 -0.5241,0.66987 -1.1188,1.37346 -1.2768,2.20921 -0.1724,0.9116 0.087,1.88481 0.4166,2.75193 0.3003,0.78939 0.8367,1.4787 1.382,2.12374 0.7067,0.83603 2.4159,2.22467 2.4159,2.22467 0,0 -0.778,-1.23287 -1.1807,-1.84039 -0.5001,-0.75436 -1.1683,-1.4125 -1.534,-2.24044 -0.351,-0.79464 -0.6636,-1.67045 -0.5979,-2.53672 0.061,-0.80679 0.4581,-1.57826 0.9067,-2.25162 0.4124,-0.61912 0.9274,-1.22689 1.5891,-1.56681 1.0054,-0.51645 2.2326,-0.35742 3.3415,-0.57619 0.6051,-0.11943 1.8062,-0.40159 1.8062,-0.40159 z"
       id="path37"
       sodipodi:nodetypes="cssssssscssssssc" /><path
       style="fill:url(#linearGradient45);fill-opacity:1;fill-rule:evenodd;stroke:#db8b7d;stroke-width:0;stroke-linecap:round;stroke-linejoin:round;stroke-opacity:0.331492"
       d="m -1327.6836,-60.792371 c -1.018,-0.70053 -2.4852,0.29967 -3.6248,0.77747 -0.7441,0.31204 -1.5051,0.71165 -2.021,1.33205 -0.4531,0.54485 -0.7253,1.25726 -0.8268,1.9586 -0.1143,0.79003 -0.021,1.63557 0.2675,2.37974 0.5705,1.46987 1.6682,2.7093 2.7814,3.82601 0.7909,0.79352 1.6786,1.55314 2.7124,1.985221 1.1921,0.49825 2.5345,0.61084 3.8265,0.61758 0.9579,0.004 1.9832,-0.002 2.8415,-0.42845 0.6289,-0.31132 1.1956,-0.838781 1.5114,-1.465441 0.4112,-0.81619 0.4396,-1.80705 0.3624,-2.7177 -0.1017,-1.19981 -0.1141,-2.72124 -1.0733,-3.44925 -0.5565,-0.42236 -1.4008,0.0185 -2.0949,-0.0616 -0.689,-0.0783 -1.404,-0.13014 -2.04,-0.40604 -0.6059,-0.26289 -1.1882,-0.64684 -1.61,-1.15518 -0.3893,-0.46907 -0.5963,-1.07379 -0.7738,-1.65696 -0.1509,-0.49569 0.1882,-1.24229 -0.2385,-1.53602 z"
       id="path38"
       sodipodi:nodetypes="sssssssssssssssss" /><path
       style="fill:url(#radialGradient60);fill-opacity:1;fill-rule:evenodd;stroke:#db8b7d;stroke-width:0;stroke-linecap:round;stroke-linejoin:round;stroke-opacity:0.331492"
       d="m -1555.3451,-55.450941 c -0.5221,0.0124 -1.0889,0.085 -1.5204,0.37935 -0.5421,0.3697 -1.0526,0.95414 -1.1402,1.60439 -0.1022,0.75811 0.2833,1.57987 0.7867,2.15583 0.5382,0.61477 1.3596,1.0338 2.1696,1.14065 0.8487,0.11181 1.8289,-0.0404 2.5052,-0.5651 0.4901,-0.38018 0.8402,-1.0363 0.8473,-1.65645 0.01,-0.76359 -0.473,-1.50691 -0.9966,-2.06275 -0.3397,-0.36328 -0.8357,-0.5562 -1.3023,-0.72809 -0.4302,-0.15856 -0.8909,-0.27897 -1.3493,-0.26783 z"
       id="path45"
       sodipodi:nodetypes="ssssssssss" /><path
       style="fill:url(#linearGradient60);fill-opacity:1;fill-rule:evenodd;stroke:#db8b7d;stroke-width:0;stroke-linecap:round;stroke-linejoin:round;stroke-opacity:0.331492"
       d="m -1558.0676,-53.238841 c 0,0 -0.5432,-0.0144 -0.8058,-0.0758 -0.5136,-0.12066 -1.0347,-0.28123 -1.4766,-0.56916 -0.3399,-0.22154 -0.6288,-0.52809 -0.8593,-0.86187 -0.3002,-0.43427 -0.5043,-0.93647 -0.6527,-1.44314 -0.1518,-0.51843 -0.3374,-1.07336 -0.2343,-1.60363 0.1127,-0.57845 0.4942,-1.09179 0.8926,-1.52594 0.3634,-0.39463 0.8414,-0.67583 1.3145,-0.92842 0.6135,-0.32724 1.9484,-0.74495 1.9484,-0.74495 0,0 -0.7488,0.54466 -1.1292,0.8085 -0.4723,0.32762 -1.0213,0.5589 -1.4317,0.96153 -0.3935,0.38678 -0.7842,0.82964 -0.9489,1.35632 -0.1534,0.49043 -0.1005,1.03894 0.01,1.54172 0.098,0.46221 0.259,0.94188 0.5696,1.29797 0.4714,0.54141 1.2333,0.73558 1.8362,1.12529 0.329,0.21271 0.9715,0.66139 0.9715,0.66139 z"
       id="path46"
       sodipodi:nodetypes="cssssssscssssssc" /><path
       style="fill:url(#linearGradient59);fill-opacity:1;fill-rule:evenodd;stroke:#db8b7d;stroke-width:0;stroke-linecap:round;stroke-linejoin:round;stroke-opacity:0.331492"
       d="m -1558.2357,-53.773251 c -0.7653,0.17421 -1.396,-0.76087 -1.9561,-1.31067 -0.3658,-0.35893 -0.7215,-0.77308 -0.8796,-1.26087 -0.1394,-0.42795 -0.1324,-0.91232 -0.028,-1.35003 0.1182,-0.49302 0.3717,-0.97014 0.7171,-1.34134 0.6822,-0.73315 1.6211,-1.2066 2.5403,-1.60395 0.6533,-0.28235 1.3556,-0.52193 2.0671,-0.53398 0.8205,-0.0144 1.6391,0.23518 2.4031,0.53486 0.5664,0.2222 1.1694,0.46804 1.576,0.92062 0.2988,0.33069 0.5084,0.77588 0.5474,1.21989 0.051,0.57824 -0.1654,1.1696 -0.4248,1.68879 -0.342,0.68413 -0.7069,1.57888 -1.444,1.78309 -0.4276,0.1184 -0.8225,-0.33929 -1.2506,-0.45596 -0.4248,-0.11593 -0.859,-0.25323 -1.2992,-0.23985 -0.4193,0.0124 -0.8531,0.10255 -1.2214,0.30325 -0.34,0.18532 -0.6042,0.49353 -0.8458,0.7961 -0.2057,0.25698 -0.1808,0.77735 -0.5016,0.8504 z"
       id="path47"
       sodipodi:nodetypes="sssssssssssssssss" /><path
       style="fill:url(#linearGradient58);fill-opacity:1;fill-rule:evenodd;stroke:#db8b7d;stroke-width:0;stroke-linecap:round;stroke-linejoin:round;stroke-opacity:0.331492"
       d="m -1553.2285,-50.082481 c 0,0 0.2044,0.50339 0.3549,0.72734 0.2939,0.438081 0.6278,0.869181 1.0524,1.181821 0.327,0.24014 0.7158,0.40239 1.1094,0.50043 0.5123,0.12767 1.0542,0.14187 1.5806,0.10213 0.5387,-0.0408 1.1234,-0.0626 1.5833,-0.34612 0.5016,-0.30913 0.8476,-0.84716 1.1133,-1.373191 0.242,-0.47873 0.336,-1.02549 0.4054,-1.55742 0.09,-0.68946 0.01,-2.08588 0.01,-2.08588 0,0 -0.2458,0.89272 -0.3586,1.34167 -0.14,0.55755 -0.163,1.1528 -0.3951,1.67874 -0.2227,0.50482 -0.5001,1.026301 -0.9347,1.366131 -0.405,0.31647 -0.9369,0.46034 -1.4449,0.53795 -0.467,0.0714 -0.9727,0.0898 -1.4154,-0.0754 -0.6726,-0.25091 -1.1231,-0.895021 -1.7002,-1.321861 -0.3149,-0.23301 -0.9615,-0.67589 -0.9615,-0.67589 z"
       id="path48"
       sodipodi:nodetypes="cssssssscssssssc" /><path
       style="fill:url(#linearGradient57);fill-opacity:1;fill-rule:evenodd;stroke:#db8b7d;stroke-width:0;stroke-linecap:round;stroke-linejoin:round;stroke-opacity:0.331492"
       d="m -1552.6692,-50.113641 c 0.1069,0.77757 1.2041,1.03828 1.9161,1.368641 0.4647,0.21582 0.978,0.40193 1.49,0.37855 0.4496,-0.0206 0.9004,-0.19767 1.2731,-0.45004 0.4197,-0.284391 0.7759,-0.690841 1.0023,-1.143951 0.4458,-0.89677 0.5578,-1.94238 0.6056,-2.94272 0.034,-0.71079 0.01,-1.45249 -0.2289,-2.12261 -0.2763,-0.77271 -0.7979,-1.45097 -1.3476,-2.06029 -0.4084,-0.45091 -0.8495,-0.92996 -1.417,-1.15041 -0.4151,-0.16206 -0.9053,-0.20221 -1.3345,-0.0822 -0.5591,0.15629 -1.0363,0.56694 -1.4307,0.99287 -0.5193,0.5614 -1.2284,1.21804 -1.1596,1.97975 0.04,0.44193 0.6085,0.64912 0.8675,1.00971 0.2581,0.35683 0.5397,0.71465 0.6824,1.13123 0.1359,0.39688 0.2049,0.83444 0.1466,1.24997 -0.054,0.38341 -0.2488,0.7394 -0.4466,1.07223 -0.168,0.28309 -0.6636,0.44327 -0.6188,0.76933 z"
       id="path49"
       sodipodi:nodetypes="sssssssssssssssss" /><path
       style="fill:url(#linearGradient56);fill-opacity:1;fill-rule:evenodd;stroke:#db8b7d;stroke-width:0;stroke-linecap:round;stroke-linejoin:round;stroke-opacity:0.331492"
       d="m -1551.8111,-52.346871 c 0,0 0.5431,0.0144 0.8057,0.0758 0.5135,0.12066 1.0347,0.28121 1.4767,0.56914 0.3398,0.22152 0.6287,0.52807 0.8592,0.86187 0.3,0.4344 0.5044,0.93647 0.6527,1.44314 0.1518,0.518451 0.3374,1.073341 0.2343,1.603611 -0.1124,0.57845 -0.4942,1.09181 -0.8926,1.52592 -0.3634,0.39465 -0.8413,0.67583 -1.3145,0.92844 -0.6135,0.32722 -1.9484,0.74495 -1.9484,0.74495 0,0 0.749,-0.54451 1.1292,-0.80849 0.4723,-0.32765 1.0213,-0.55891 1.4317,-0.96149 0.3937,-0.38667 0.7842,-0.82971 0.949,-1.35635 0.1536,-0.49047 0.1004,-1.03894 -0.01,-1.541741 -0.098,-0.46221 -0.2589,-0.9419 -0.5695,-1.29795 -0.4714,-0.5414 -1.2334,-0.7356 -1.8363,-1.12527 -0.3289,-0.21273 -0.9714,-0.66141 -0.9714,-0.66141 z"
       id="path50"
       sodipodi:nodetypes="cssssssscssssssc" /><path
       style="fill:url(#linearGradient55);fill-opacity:1;fill-rule:evenodd;stroke:#db8b7d;stroke-width:0;stroke-linecap:round;stroke-linejoin:round;stroke-opacity:0.331492"
       d="m -1551.6431,-51.812441 c 0.7653,-0.1742 1.396,0.76087 1.9562,1.31066 0.3657,0.35892 0.7214,0.77308 0.8795,1.26086 0.1394,0.427931 0.1324,0.912321 0.028,1.350031 -0.1182,0.49302 -0.3718,0.97014 -0.7171,1.34134 -0.6822,0.73315 -1.6211,1.20659 -2.5404,1.60394 -0.6532,0.28236 -1.3555,0.52194 -2.067,0.53399 -0.8205,0.0144 -1.6392,-0.23519 -2.4031,-0.53488 -0.5664,-0.2222 -1.1694,-0.46804 -1.576,-0.9206 -0.2988,-0.33071 -0.5084,-0.77588 -0.5474,-1.21989 -0.051,-0.57824 0.1652,-1.1696 0.4248,-1.68879 0.342,-0.684131 0.7069,-1.578901 1.4439,-1.783081 0.4277,-0.1184 0.8226,0.33926 1.2507,0.45597 0.4248,0.11572 0.859,0.25319 1.2991,0.23983 0.4194,-0.0124 0.8532,-0.10255 1.2215,-0.30325 0.34,-0.18532 0.6042,-0.49355 0.8458,-0.79612 0.2057,-0.25698 0.1808,-0.77732 0.5018,-0.85026 z"
       id="path51"
       sodipodi:nodetypes="sssssssssssssssss" /><path
       style="fill:url(#linearGradient54);fill-opacity:1;fill-rule:evenodd;stroke:#db8b7d;stroke-width:0;stroke-linecap:round;stroke-linejoin:round;stroke-opacity:0.331492"
       d="m -1556.6503,-55.503221 c 0,0 -0.2046,-0.5034 -0.3549,-0.72735 -0.294,-0.43792 -0.6277,-0.86916 -1.0525,-1.18182 -0.3269,-0.24011 -0.7157,-0.40237 -1.1093,-0.50045 -0.5123,-0.12766 -1.0542,-0.14187 -1.5806,-0.10213 -0.5387,0.0406 -1.1234,0.0626 -1.5833,0.3461 -0.5016,0.30913 -0.8476,0.84716 -1.1134,1.37305 -0.242,0.47874 -0.336,1.0255 -0.4055,1.55744 -0.09,0.68944 -0.01,2.08588 -0.01,2.08588 0,0 0.2458,-0.89272 0.3586,-1.34169 0.14,-0.55753 0.1631,-1.15278 0.3951,-1.67873 0.2228,-0.50481 0.5001,-1.02629 0.9348,-1.36615 0.4049,-0.31642 0.9368,-0.46034 1.4448,-0.53795 0.4671,-0.0714 0.9727,-0.0898 1.4154,0.0754 0.6727,0.25088 1.1231,0.895 1.7003,1.32186 0.3149,0.23301 0.9614,0.67589 0.9614,0.67589 z"
       id="path52"
       sodipodi:nodetypes="cssssssscssssssc" /><path
       style="fill:url(#linearGradient53);fill-opacity:1;fill-rule:evenodd;stroke:#db8b7d;stroke-width:0;stroke-linecap:round;stroke-linejoin:round;stroke-opacity:0.331492"
       d="m -1557.2096,-55.472051 c -0.1069,-0.77761 -1.2041,-1.03827 -1.9161,-1.36866 -0.4647,-0.21584 -0.978,-0.4019 -1.49,-0.37853 -0.4496,0.0206 -0.9004,0.19768 -1.2731,0.45 -0.4197,0.28441 -0.7759,0.69084 -1.0024,1.14397 -0.4457,0.89677 -0.5577,1.94238 -0.6055,2.9427 -0.034,0.71079 -0.01,1.45251 0.2289,2.12262 0.2763,0.7727 0.7979,1.45098 1.3476,2.060281 0.4084,0.45093 0.8495,0.92998 1.417,1.15041 0.4151,0.16206 0.9052,0.20221 1.3345,0.0824 0.559,-0.15629 1.0363,-0.56694 1.4307,-0.99287 0.5193,-0.56142 1.2284,-1.218061 1.1596,-1.979771 -0.04,-0.44189 -0.6085,-0.6491 -0.8675,-1.00972 -0.2581,-0.3568 -0.5397,-0.71466 -0.6823,-1.13122 -0.1359,-0.39688 -0.2049,-0.83448 -0.1469,-1.24998 0.054,-0.38343 0.2489,-0.73937 0.4466,-1.07223 0.168,-0.28306 0.6635,-0.44341 0.6188,-0.76933 z"
       id="path53"
       sodipodi:nodetypes="sssssssssssssssss" /><path
       style="fill:url(#radialGradient60-7);fill-opacity:1;fill-rule:evenodd;stroke:#db8b7d;stroke-width:0;stroke-linecap:round;stroke-linejoin:round;stroke-opacity:0.331492"
       d="m -1152.2773,-13.39835 c -0.057,0.51923 -0.059,1.09064 0.1755,1.55716 0.295,0.58611 0.8069,1.16936 1.4398,1.34201 0.7381,0.20139 1.6035,-0.0723 2.2409,-0.49544 0.6804,-0.45229 1.2041,-1.21129 1.4169,-2.0001 0.2228,-0.82655 0.2014,-1.81823 -0.2296,-2.55789 -0.3122,-0.53591 -0.9164,-0.96952 -1.5302,-1.05837 -0.7558,-0.10893 -1.5561,0.27001 -2.1763,0.71526 -0.4049,0.28875 -0.6616,0.75492 -0.8936,1.19481 -0.2139,0.40552 -0.3941,0.84626 -0.4435,1.30211 z"
       id="path60"
       sodipodi:nodetypes="ssssssssss" /><path
       style="fill:url(#linearGradient68);fill-opacity:1;fill-rule:evenodd;stroke:#db8b7d;stroke-width:0;stroke-linecap:round;stroke-linejoin:round;stroke-opacity:0.331492"
       d="m -1150.4438,-10.40769 c 0,0 -0.086,0.5365301 -0.1814,0.7887101 -0.1874,0.49314 -0.4153,0.98851 -0.759,1.38864 -0.2644,0.30761 -0.6064,0.55355 -0.9677,0.73803 -0.4701,0.24034 -0.9948,0.37626 -1.5167,0.45653 -0.5339,0.0822 -1.1085,0.19273 -1.6205,0.0206 -0.5585,-0.188 -1.017,-0.63386 -1.3948,-1.08615 -0.3433,-0.41222 -0.5589,-0.92313 -0.7469,-1.42549 -0.2433,-0.6513501 -0.4813,-2.0296101 -0.4813,-2.0296101 0,0 0.4411,0.81406 0.6524,1.22595 0.2624,0.5114901 0.4193,1.0861701 0.7643,1.5460501 0.3314,0.44115 0.7189,0.88681 1.2192,1.11964 0.4659,0.21676 1.0166,0.23669 1.5291,0.19726 0.471,-0.036 0.9677,-0.1324 1.3617,-0.39329 0.5989,-0.39583 0.8919,-1.12552 1.3578,-1.67175 0.2543,-0.29791 0.7838,-0.8756601 0.7838,-0.8756601 z"
       id="path61"
       sodipodi:nodetypes="cssssssscssssssc" /><path
       style="fill:url(#linearGradient69);fill-opacity:1;fill-rule:evenodd;stroke:#db8b7d;stroke-width:0;stroke-linecap:round;stroke-linejoin:round;stroke-opacity:0.331492"
       d="m -1150.9957,-10.31165 c 0.072,0.7816401 -0.9384,1.2834301 -1.5573,1.7661101 -0.4041,0.31517 -0.8615,0.61317 -1.3659,0.70548 -0.4426,0.0817 -0.9218,0.0103 -1.3419,-0.15073 -0.4731,-0.18223 -0.9126,-0.49645 -1.235,-0.88777 -0.6367,-0.77295 -0.9821,-1.7661601 -1.2547,-2.7297901 -0.1938,-0.68476 -0.3386,-1.41252 -0.2566,-2.11944 0.094,-0.81525 0.4495,-1.59374 0.8473,-2.31147 0.295,-0.53212 0.6183,-1.09744 1.1206,-1.44076 0.3672,-0.25255 0.8361,-0.40161 1.2814,-0.38155 0.5799,0.0259 1.1376,0.31824 1.618,0.64393 0.633,0.42924 1.4718,0.90906 1.577,1.6666 0.061,0.43952 -0.4449,0.77056 -0.617,1.17949 -0.1709,0.40583 -0.3644,0.81811 -0.4092,1.25619 -0.043,0.41726 -0.01,0.85921 0.1394,1.25078 0.1396,0.36119 0.4095,0.66404 0.6776,0.94347 0.2275,0.23783 0.7467,0.28179 0.7767,0.60944 z"
       id="path62"
       sodipodi:nodetypes="sssssssssssssssss" /><path
       style="fill:url(#linearGradient70);fill-opacity:1;fill-rule:evenodd;stroke:#db8b7d;stroke-width:0;stroke-linecap:round;stroke-linejoin:round;stroke-opacity:0.331492"
       d="m -1146.6765,-14.78801 c 0,0 0.526,-0.13632 0.7678,-0.25587 0.4731,-0.23351 0.9445,-0.50749 1.3104,-0.8873 0.2811,-0.29252 0.4933,-0.65635 0.6424,-1.03364 0.1942,-0.49098 0.2798,-1.02619 0.3098,-1.55329 0.031,-0.53936 0.086,-1.12183 -0.1342,-1.61512 -0.2402,-0.53803 -0.728,-0.95193 -1.2143,-1.28471 -0.4426,-0.30304 -0.9722,-0.46837 -1.4903,-0.6074 -0.6716,-0.18017 -2.0663,-0.28544 -2.0663,-0.28544 0,0 0.8525,0.3614 1.2826,0.53245 0.5342,0.21236 1.1212,0.31377 1.6119,0.61321 0.4711,0.2874 0.9514,0.63111 1.2309,1.10683 0.2603,0.44318 0.3334,0.98916 0.3427,1.50314 0.01,0.47243 -0.039,0.97611 -0.2615,1.39312 -0.3375,0.63362 -1.0354,0.99516 -1.5347,1.51095 -0.2725,0.2814 -0.7968,0.86385 -0.7968,0.86385 z"
       id="path63"
       sodipodi:nodetypes="cssssssscssssssc" /><path
       style="fill:url(#linearGradient71);fill-opacity:1;fill-rule:evenodd;stroke:#db8b7d;stroke-width:0;stroke-linecap:round;stroke-linejoin:round;stroke-opacity:0.331492"
       d="m -1146.6336,-15.34657 c 0.7849,-0.004 1.1881,-1.05654 1.6095,-1.71872 0.2753,-0.43219 0.5275,-0.91645 0.5719,-1.42702 0.039,-0.44845 -0.077,-0.91868 -0.2781,-1.32138 -0.2266,-0.45354 -0.5824,-0.8603 -1.0017,-1.14453 -0.8301,-0.5602 -1.8518,-0.80919 -2.8371,-0.98856 -0.7,-0.12746 -1.4384,-0.2018 -2.1342,-0.0531 -0.8024,0.17194 -1.5436,0.59937 -2.2201,1.06395 -0.5008,0.34542 -1.0339,0.71938 -1.3273,1.2528 -0.2155,0.39012 -0.3199,0.87068 -0.2576,1.31203 0.081,0.57475 0.4252,1.10201 0.7955,1.54915 0.4879,0.58887 1.0453,1.37836 1.8094,1.41073 0.4434,0.0185 0.7237,-0.5176 1.1153,-0.72669 0.3878,-0.20881 0.7796,-0.44073 1.2115,-0.52707 0.4113,-0.0824 0.8541,-0.0929 1.2583,0.0206 0.373,0.10357 0.7001,0.34418 1.004,0.58411 0.2583,0.20386 0.3517,0.71635 0.6809,0.71491 z"
       id="path64"
       sodipodi:nodetypes="sssssssssssssssss" /><path
       style="fill:url(#linearGradient72);fill-opacity:1;fill-rule:evenodd;stroke:#db8b7d;stroke-width:0;stroke-linecap:round;stroke-linejoin:round;stroke-opacity:0.331492"
       d="m -1148.734,-16.4918 c 0,0 0.086,-0.53648 0.1814,-0.78873 0.1873,-0.49308 0.4152,-0.98846 0.759,-1.38859 0.2644,-0.30764 0.6064,-0.55358 0.9677,-0.73806 0.4701,-0.24015 0.9948,-0.37626 1.5166,-0.45653 0.5339,-0.0822 1.1085,-0.19273 1.6205,-0.0206 0.5586,0.18779 1.0171,0.63388 1.3948,1.08615 0.3433,0.41226 0.559,0.92313 0.7469,1.4255 0.2434,0.65134 0.4813,2.02964 0.4813,2.02964 0,0 -0.4409,-0.81422 -0.6524,-1.22599 -0.2625,-0.5114 -0.4192,-1.08615 -0.7642,-1.54601 -0.3312,-0.44131 -0.7189,-0.88687 -1.2192,-1.11967 -0.4659,-0.21697 -1.0166,-0.2367 -1.5291,-0.19727 -0.4711,0.036 -0.9679,0.1322 -1.3617,0.3933 -0.5989,0.39582 -0.892,1.12554 -1.3578,1.67176 -0.2543,0.2979 -0.7838,0.87567 -0.7838,0.87567 z"
       id="path65"
       sodipodi:nodetypes="cssssssscssssssc" /><path
       style="fill:url(#linearGradient73);fill-opacity:1;fill-rule:evenodd;stroke:#db8b7d;stroke-width:0;stroke-linecap:round;stroke-linejoin:round;stroke-opacity:0.331492"
       d="m -1148.1821,-16.5878 c -0.072,-0.78164 0.9384,-1.28343 1.5573,-1.76617 0.4041,-0.31517 0.8615,-0.61313 1.3659,-0.70546 0.4426,-0.0817 0.9218,-0.0103 1.3419,0.15073 0.4731,0.18223 0.9126,0.49652 1.2349,0.88779 0.6368,0.77298 0.9822,1.76616 1.2548,2.72981 0.1937,0.68478 0.3385,1.41254 0.2565,2.11946 -0.094,0.81523 -0.4494,1.59377 -0.8473,2.31148 -0.2949,0.5321 -0.6182,1.0974101 -1.1205,1.4407301 -0.3672,0.25257 -0.8361,0.40163 -1.2814,0.38156 -0.5799,-0.0259 -1.1376,-0.31802 -1.618,-0.64391 -0.633,-0.4292301 -1.4718,-0.9090701 -1.577,-1.6665801 -0.061,-0.43952 0.4449,-0.77059 0.617,-1.17953 0.1707,-0.40586 0.3644,-0.81809 0.4092,-1.25615 0.043,-0.41731 0.01,-0.85922 -0.1394,-1.2508 -0.1396,-0.36117 -0.4095,-0.66407 -0.6776,-0.94347 -0.2275,-0.23781 -0.7466,-0.28178 -0.7766,-0.60957 z"
       id="path66"
       sodipodi:nodetypes="sssssssssssssssss" /><path
       style="fill:url(#linearGradient74);fill-opacity:1;fill-rule:evenodd;stroke:#db8b7d;stroke-width:0;stroke-linecap:round;stroke-linejoin:round;stroke-opacity:0.331492"
       d="m -1152.5013,-12.11145 c 0,0 -0.526,0.13652 -0.7679,0.25586 -0.4728,0.23369 -0.9444,0.5075 -1.3103,0.88728 -0.2812,0.29232 -0.4933,0.65637 -0.6425,1.0336401 -0.1942,0.49098 -0.2797,1.02621 -0.3098,1.55331 -0.031,0.53931 -0.086,1.12181 0.1343,1.6151 0.2402,0.53805 0.7279,0.95197 1.2141,1.28487 0.4426,0.30307 0.9722,0.46837 1.4903,0.60741 0.6716,0.18017 2.0663,0.28543 2.0663,0.28543 0,0 -0.8525,-0.3614 -1.2826,-0.53245 -0.5342,-0.21236 -1.1212,-0.31377 -1.6119,-0.61321 -0.471,-0.28739 -0.9514,-0.63108 -1.2309,-1.10686 -0.2602,-0.4431 -0.3334,-0.98912 -0.3427,-1.50312 -0.01,-0.47243 0.039,-0.97609 0.2615,-1.39309 0.3375,-0.6336501 1.0354,-0.9951501 1.5347,-1.5109901 0.2725,-0.2814 0.7968,-0.86382 0.7968,-0.86382 z"
       id="path67"
       sodipodi:nodetypes="cssssssscssssssc" /><path
       style="fill:url(#linearGradient75);fill-opacity:1;fill-rule:evenodd;stroke:#db8b7d;stroke-width:0;stroke-linecap:round;stroke-linejoin:round;stroke-opacity:0.331492"
       d="m -1152.5442,-11.55289 c -0.7849,0.004 -1.1881,1.05651 -1.6096,1.7187101 -0.2752,0.43217 -0.5274,0.91648 -0.5718,1.42702 -0.039,0.44844 0.077,0.91868 0.2781,1.32134 0.2266,0.45359 0.5824,0.86028 1.0017,1.14457 0.8301,0.56021 1.8518,0.8092 2.8371,0.98857 0.7001,0.12746 1.4384,0.20179 2.1342,0.0531 0.8024,-0.17194 1.5436,-0.59939 2.2201,-1.06395 0.5009,-0.34542 1.034,-0.71938 1.3274,-1.25278 0.2154,-0.39014 0.3198,-0.8707 0.2577,-1.31201 -0.081,-0.57477 -0.4252,-1.10207 -0.7954,-1.5491701 -0.488,-0.58889 -1.0453,-1.37838 -1.8095,-1.41073 -0.4433,-0.0185 -0.7237,0.51757 -1.1153,0.72667 -0.3878,0.20882 -0.7796,0.44074 -1.2114,0.52708 -0.4114,0.0824 -0.8543,0.0929 -1.2584,-0.0185 -0.3731,-0.10357 -0.7001,-0.3442 -1.004,-0.58411 -0.2583,-0.20385 -0.3519,-0.71625 -0.6809,-0.71491 z"
       id="path68"
       sodipodi:nodetypes="sssssssssssssssss" /><path
       style="fill:url(#radialGradient90);fill-opacity:1;fill-rule:evenodd;stroke:#db8b7d;stroke-width:0;stroke-linecap:round;stroke-linejoin:round;stroke-opacity:0.331492"
       d="m -1631.4118,-60.363571 c -0.2754,-0.0231 -0.5778,-0.0165 -0.8216,0.11304 -0.3063,0.1637 -0.6082,0.4422 -0.6914,0.77926 -0.097,0.39309 0.059,0.84746 0.2913,1.17916 0.2482,0.35413 0.6565,0.62147 1.0767,0.7237 0.4402,0.10728 0.9646,0.083 1.3504,-0.15464 0.2796,-0.17194 0.501,-0.4975 0.54,-0.82351 0.048,-0.4013 -0.1631,-0.81984 -0.4071,-1.14211 -0.1587,-0.20991 -0.408,-0.34029 -0.6438,-0.45725 -0.2173,-0.1079 -0.4528,-0.19747 -0.6946,-0.21774 z"
       id="path75"
       sodipodi:nodetypes="ssssssssss" /><path
       style="fill:url(#linearGradient91);fill-opacity:1;fill-rule:evenodd;stroke:#db8b7d;stroke-width:0;stroke-linecap:round;stroke-linejoin:round;stroke-opacity:0.331492"
       d="m -1632.9703,-59.354541 c 0,0 -0.2852,-0.0383 -0.4197,-0.0857 -0.2634,-0.0927 -0.5284,-0.20688 -0.7446,-0.38351 -0.1657,-0.13673 -0.3008,-0.31363 -0.4032,-0.50224 -0.1333,-0.24566 -0.2121,-0.5215 -0.2614,-0.79652 -0.05,-0.28148 -0.1165,-0.58399 -0.032,-0.85715 0.092,-0.29804 0.3221,-0.54639 0.5565,-0.7522 0.2134,-0.18738 0.481,-0.3079 0.7445,-0.41366 0.3414,-0.13734 1.0676,-0.28109 1.0676,-0.28109 0,0 -0.4249,0.24405 -0.6402,0.36109 -0.2672,0.14537 -0.5692,0.236 -0.808,0.42455 -0.2291,0.181 -0.4599,0.39191 -0.5763,0.65993 -0.1087,0.24934 -0.112,0.54098 -0.085,0.81157 0.025,0.24876 0.083,0.51035 0.2258,0.7154 0.2173,0.31173 0.6071,0.45733 0.9021,0.69671 0.1615,0.13034 0.4735,0.40336 0.4735,0.40336 z"
       id="path76"
       sodipodi:nodetypes="cssssssscssssssc" /><path
       style="fill:url(#linearGradient89);fill-opacity:1;fill-rule:evenodd;stroke:#db8b7d;stroke-width:0;stroke-linecap:round;stroke-linejoin:round;stroke-opacity:0.331492"
       d="m -1633.0283,-59.645291 c -0.4127,0.048 -0.6912,-0.47988 -0.9547,-0.801 -0.172,-0.20968 -0.3357,-0.44782 -0.391,-0.71355 -0.049,-0.23311 -0.019,-0.48758 0.062,-0.71194 0.09,-0.25282 0.2508,-0.4894 0.4536,-0.66506 0.4006,-0.34701 0.9216,-0.54268 1.428,-0.69943 0.3599,-0.11139 0.743,-0.19747 1.118,-0.16328 0.4326,0.0393 0.8492,0.21705 1.2341,0.41823 0.2853,0.14928 0.5887,0.31278 0.7768,0.57416 0.1379,0.1913 0.2232,0.4373 0.2186,0.67305 -0.01,0.30718 -0.1534,0.60604 -0.3197,0.86448 -0.2189,0.34042 -0.4617,0.79059 -0.8613,0.85599 -0.2317,0.0379 -0.4136,-0.22525 -0.6321,-0.31106 -0.217,-0.0852 -0.4376,-0.18223 -0.67,-0.20014 -0.2214,-0.0165 -0.4547,0.006 -0.66,0.09 -0.1894,0.0783 -0.3459,0.22535 -0.4909,0.36994 -0.1227,0.12355 -0.1394,0.39873 -0.3124,0.41877 z"
       id="path77"
       sodipodi:nodetypes="sssssssssssssssss" /><path
       style="fill:url(#linearGradient88);fill-opacity:1;fill-rule:evenodd;stroke:#db8b7d;stroke-width:0;stroke-linecap:round;stroke-linejoin:round;stroke-opacity:0.331492"
       d="m -1630.6036,-57.418281 c 0,0 0.079,0.27638 0.1453,0.40287 0.13,0.24712 0.2808,0.49316 0.4875,0.68106 0.159,0.14434 0.3539,0.25228 0.5553,0.32639 0.2624,0.0962 0.5466,0.13467 0.8259,0.14373 0.2858,0.008 0.5947,0.0309 0.8528,-0.092 0.2815,-0.13426 0.4943,-0.39758 0.6641,-0.65911 0.1544,-0.23822 0.2352,-0.52047 0.3019,-0.79645 0.086,-0.35769 0.1242,-1.09698 0.1242,-1.09698 0,0 -0.1802,0.45568 -0.265,0.68556 -0.1055,0.2854 -0.1514,0.59734 -0.3035,0.86084 -0.146,0.25282 -0.3216,0.51153 -0.57,0.66531 -0.2316,0.1427 -0.5191,0.18903 -0.7909,0.20076 -0.2497,0.0103 -0.5169,-0.008 -0.7405,-0.12025 -0.3396,-0.17029 -0.54,-0.53488 -0.8195,-0.79217 -0.1532,-0.13961 -0.4681,-0.40962 -0.4681,-0.40962 z"
       id="path78"
       sodipodi:nodetypes="cssssssscssssssc" /><path
       style="fill:url(#linearGradient87);fill-opacity:1;fill-rule:evenodd;stroke:#db8b7d;stroke-width:0;stroke-linecap:round;stroke-linejoin:round;stroke-opacity:0.331492"
       d="m -1630.3075,-57.402811 c 0.012,0.41522 0.5745,0.61477 0.9302,0.82931 0.2322,0.14002 0.4917,0.26724 0.7625,0.284 0.2377,0.0144 0.485,-0.0527 0.6955,-0.16432 0.237,-0.12581 0.4476,-0.31933 0.5927,-0.54472 0.2857,-0.44642 0.404,-0.99032 0.4861,-1.51396 0.058,-0.37208 0.088,-0.76369 4e-4,-1.12995 -0.1013,-0.42234 -0.3373,-0.80886 -0.5918,-1.16085 -0.189,-0.26058 -0.3941,-0.53762 -0.6802,-0.68586 -0.2092,-0.10892 -0.4648,-0.15793 -0.6976,-0.11922 -0.303,0.0505 -0.5775,0.23935 -0.8093,0.44096 -0.3054,0.26571 -0.7158,0.57092 -0.723,0.97564 0,0.23449 0.2833,0.37612 0.3984,0.58102 0.1155,0.20242 0.2433,0.40679 0.2947,0.63413 0.049,0.21644 0.06,0.45075 0.01,0.66607 -0.05,0.19871 -0.1729,0.37484 -0.296,0.53873 -0.1056,0.13858 -0.3743,0.19562 -0.3694,0.36966 z"
       id="path79"
       sodipodi:nodetypes="sssssssssssssssss" /><path
       style="fill:url(#linearGradient86);fill-opacity:1;fill-rule:evenodd;stroke:#db8b7d;stroke-width:0;stroke-linecap:round;stroke-linejoin:round;stroke-opacity:0.331492"
       d="m -1629.729,-58.529091 c 0,0 0.2851,0.0385 0.4198,0.0856 0.2634,0.0927 0.5283,0.20691 0.7446,0.38354 0.1657,0.13672 0.3007,0.31362 0.4032,0.50226 0.1333,0.24563 0.212,0.5215 0.2613,0.79649 0.051,0.28149 0.1166,0.58401 0.032,0.85716 -0.092,0.29804 -0.3222,0.54641 -0.5565,0.7522 -0.2132,0.18738 -0.481,0.3079 -0.7445,0.41368 -0.3414,0.13734 -1.0676,0.28111 -1.0676,0.28111 0,0 0.4249,-0.24407 0.6402,-0.36113 0.2671,-0.14558 0.5692,-0.236 0.8081,-0.42437 0.2293,-0.181 0.4599,-0.39191 0.5762,-0.65991 0.1088,-0.24936 0.1121,-0.54095 0.085,-0.81158 -0.025,-0.24877 -0.083,-0.51036 -0.2258,-0.71539 -0.2173,-0.31173 -0.6071,-0.45733 -0.9021,-0.6967 -0.1615,-0.13034 -0.4735,-0.40339 -0.4735,-0.40339 z"
       id="path80"
       sodipodi:nodetypes="cssssssscssssssc" /><path
       style="fill:url(#linearGradient85);fill-opacity:1;fill-rule:evenodd;stroke:#db8b7d;stroke-width:0;stroke-linecap:round;stroke-linejoin:round;stroke-opacity:0.331492"
       d="m -1629.671,-58.238331 c 0.4127,-0.048 0.6913,0.47988 0.9548,0.80103 0.1719,0.2097 0.3356,0.44784 0.391,0.71355 0.049,0.23295 0.018,0.48758 -0.062,0.71192 -0.09,0.2527 -0.2508,0.48939 -0.4536,0.66508 -0.4007,0.347 -0.9217,0.54264 -1.428,0.6994 -0.3599,0.1112 -0.743,0.19747 -1.1181,0.16329 -0.4325,-0.0393 -0.8491,-0.21703 -1.234,-0.41823 -0.2854,-0.14929 -0.5888,-0.31278 -0.7768,-0.57419 -0.138,-0.19129 -0.2234,-0.43713 -0.2187,-0.67302 0.01,-0.3072 0.1536,-0.60603 0.3197,-0.86447 0.2189,-0.34043 0.4619,-0.79048 0.8613,-0.85602 0.2317,-0.0379 0.4136,0.22525 0.6322,0.31107 0.2169,0.0853 0.4375,0.18224 0.6699,0.20015 0.2213,0.0165 0.4547,-0.006 0.66,-0.09 0.1894,-0.0783 0.346,-0.22531 0.4909,-0.36992 0.1228,-0.12355 0.1394,-0.39876 0.3125,-0.41877 z"
       id="path81"
       sodipodi:nodetypes="sssssssssssssssss" /><path
       style="fill:url(#linearGradient84);fill-opacity:1;fill-rule:evenodd;stroke:#db8b7d;stroke-width:0;stroke-linecap:round;stroke-linejoin:round;stroke-opacity:0.331492"
       d="m -1632.0956,-60.465341 c 0,0 -0.079,-0.27635 -0.1454,-0.40286 -0.1297,-0.24712 -0.2807,-0.49315 -0.4875,-0.68104 -0.1589,-0.14435 -0.3536,-0.25261 -0.5552,-0.32656 -0.2623,-0.0962 -0.5466,-0.13467 -0.8259,-0.14373 -0.2858,-0.008 -0.5946,-0.0309 -0.8528,0.092 -0.2814,0.13425 -0.4942,0.39755 -0.6638,0.65921 -0.1545,0.23822 -0.2353,0.52048 -0.302,0.79647 -0.086,0.35769 -0.1242,1.09698 -0.1242,1.09698 0,0 0.1802,-0.45567 0.265,-0.68559 0.1055,-0.28539 0.1514,-0.59729 0.3035,-0.86082 0.146,-0.25294 0.3216,-0.51153 0.5701,-0.66532 0.2316,-0.1427 0.5191,-0.18882 0.7908,-0.20077 0.2497,-0.0103 0.517,0.008 0.7405,0.12026 0.3396,0.17029 0.54,0.53488 0.8195,0.79218 0.1532,0.13961 0.4681,0.40961 0.4681,0.40961 z"
       id="path82"
       sodipodi:nodetypes="cssssssscssssssc" /><path
       style="fill:url(#linearGradient83);fill-opacity:1;fill-rule:evenodd;stroke:#db8b7d;stroke-width:0;stroke-linecap:round;stroke-linejoin:round;stroke-opacity:0.331492"
       d="m -1632.3917,-60.480781 c -0.012,-0.41526 -0.5746,-0.61479 -0.9302,-0.82931 -0.2322,-0.14002 -0.4919,-0.26711 -0.7625,-0.28398 -0.2378,-0.0144 -0.4851,0.0527 -0.6955,0.16432 -0.2371,0.12581 -0.4477,0.31935 -0.5928,0.54478 -0.2856,0.4464 -0.404,0.9903 -0.4861,1.51394 -0.058,0.3721 -0.088,0.76371 -3e-4,1.12992 0.1013,0.42237 0.3373,0.80891 0.5917,1.16086 0.1891,0.26077 0.394,0.53778 0.6803,0.68585 0.2092,0.10893 0.4648,0.15794 0.6975,0.11923 0.3031,-0.0505 0.5775,-0.2394 0.8093,-0.44101 0.3054,-0.26571 0.7158,-0.57091 0.723,-0.97563 0,-0.23464 -0.2832,-0.37631 -0.3984,-0.58105 -0.1156,-0.20262 -0.2433,-0.40678 -0.2947,-0.63406 -0.049,-0.21646 -0.06,-0.45077 -0.01,-0.66609 0.05,-0.19891 0.173,-0.37501 0.2961,-0.53875 0.1056,-0.13858 0.3743,-0.19562 0.3694,-0.36964 z"
       id="path83"
       sodipodi:nodetypes="sssssssssssssssss" /></g></svg>
