<?xml version="1.0" encoding="UTF-8" standalone="no"?>
<!-- Created with Inkscape (http://www.inkscape.org/) -->

<svg
   width="124.41346mm"
   height="110.64402mm"
   viewBox="0 0 124.41346 110.64402"
   version="1.1"
   id="svg1"
   inkscape:version="1.3.2 (091e20e, 2023-11-25, custom)"
   sodipodi:docname="Full Sheet.svg"
   xml:space="preserve"
   inkscape:export-filename="Solo Poppy Cluster.svg"
   inkscape:export-xdpi="96"
   inkscape:export-ydpi="96"
   xmlns:inkscape="http://www.inkscape.org/namespaces/inkscape"
   xmlns:sodipodi="http://sodipodi.sourceforge.net/DTD/sodipodi-0.dtd"
   xmlns:xlink="http://www.w3.org/1999/xlink"
   xmlns="http://www.w3.org/2000/svg"
   xmlns:svg="http://www.w3.org/2000/svg"><sodipodi:namedview
     id="namedview1"
     pagecolor="#000000"
     bordercolor="#000000"
     borderopacity="0.25"
     inkscape:showpageshadow="2"
     inkscape:pageopacity="0.0"
     inkscape:pagecheckerboard="true"
     inkscape:deskcolor="#000000"
     inkscape:document-units="mm"
     showborder="false"
     inkscape:zoom="0.0625"
     inkscape:cx="-1720"
     inkscape:cy="-192"
     inkscape:window-width="2428"
     inkscape:window-height="1360"
     inkscape:window-x="0"
     inkscape:window-y="0"
     inkscape:window-maximized="0"
     inkscape:current-layer="layer1" /><defs
     id="defs1"><linearGradient
       id="linearGradient29"
       inkscape:collect="always"><stop
         style="stop-color:#242424;stop-opacity:1;"
         offset="0"
         id="stop29" /><stop
         style="stop-color:#121212;stop-opacity:1;"
         offset="1"
         id="stop30" /></linearGradient><linearGradient
       id="linearGradient16"
       inkscape:collect="always"><stop
         style="stop-color:#d5303d;stop-opacity:1;"
         offset="0"
         id="stop16" /><stop
         style="stop-color:#940812;stop-opacity:1;"
         offset="1"
         id="stop17" /></linearGradient><linearGradient
       id="linearGradient14"
       inkscape:collect="always"><stop
         style="stop-color:#d5303d;stop-opacity:1;"
         offset="0.58804524"
         id="stop14" /><stop
         style="stop-color:#a00113;stop-opacity:1;"
         offset="1"
         id="stop15" /></linearGradient><linearGradient
       inkscape:collect="always"
       xlink:href="#linearGradient14"
       id="linearGradient19"
       gradientUnits="userSpaceOnUse"
       x1="-1603.2338"
       y1="-476.68759"
       x2="-1562.4386"
       y2="-449.44437"
       gradientTransform="translate(0,-195.02255)" /><linearGradient
       inkscape:collect="always"
       xlink:href="#linearGradient16"
       id="linearGradient20"
       gradientUnits="userSpaceOnUse"
       x1="-1596.3284"
       y1="-427.86819"
       x2="-1572.4354"
       y2="-425.39954"
       gradientTransform="translate(0,-195.02255)" /><linearGradient
       inkscape:collect="always"
       xlink:href="#linearGradient14"
       id="linearGradient21"
       gradientUnits="userSpaceOnUse"
       gradientTransform="matrix(-0.89934496,0.4372398,0.4372398,0.89934496,-2743.3564,435.4003)"
       x1="-1603.2338"
       y1="-476.68759"
       x2="-1562.4386"
       y2="-449.44437" /><linearGradient
       inkscape:collect="always"
       xlink:href="#linearGradient16"
       id="linearGradient22"
       gradientUnits="userSpaceOnUse"
       gradientTransform="matrix(-0.89934496,0.4372398,0.4372398,0.89934496,-2743.3564,435.4003)"
       x1="-1596.3284"
       y1="-427.86819"
       x2="-1572.4354"
       y2="-425.39954" /><linearGradient
       inkscape:collect="always"
       xlink:href="#linearGradient14"
       id="linearGradient25"
       gradientUnits="userSpaceOnUse"
       gradientTransform="matrix(0.89934496,-0.4372398,-0.4372398,-0.89934496,-350.00584,-1711.6655)"
       x1="-1603.2338"
       y1="-476.68759"
       x2="-1562.4386"
       y2="-449.44437" /><linearGradient
       inkscape:collect="always"
       xlink:href="#linearGradient16"
       id="linearGradient26"
       gradientUnits="userSpaceOnUse"
       gradientTransform="matrix(0.89934496,-0.4372398,-0.4372398,-0.89934496,-350.00584,-1711.6655)"
       x1="-1596.3284"
       y1="-427.86819"
       x2="-1572.4354"
       y2="-425.39954" /><linearGradient
       inkscape:collect="always"
       xlink:href="#linearGradient14"
       id="linearGradient27"
       gradientUnits="userSpaceOnUse"
       gradientTransform="rotate(180,-1546.6812,-540.62129)"
       x1="-1603.2338"
       y1="-476.68759"
       x2="-1562.4386"
       y2="-449.44437" /><linearGradient
       inkscape:collect="always"
       xlink:href="#linearGradient16"
       id="linearGradient28"
       gradientUnits="userSpaceOnUse"
       gradientTransform="rotate(180,-1546.6812,-540.62129)"
       x1="-1596.3284"
       y1="-427.86819"
       x2="-1572.4354"
       y2="-425.39954" /><radialGradient
       inkscape:collect="always"
       xlink:href="#linearGradient29"
       id="radialGradient30"
       cx="-1546.2504"
       cy="-638.46552"
       fx="-1546.2504"
       fy="-638.46552"
       r="21.143938"
       gradientTransform="matrix(1,0,0,0.88771625,0,-71.689306)"
       gradientUnits="userSpaceOnUse" /></defs><g
     inkscape:label="Layer 1"
     inkscape:groupmode="layer"
     id="layer1"
     transform="translate(1608.8879,693.45457)"><path
       style="fill:url(#radialGradient30);fill-opacity:1;fill-rule:evenodd;stroke:#db8b7d;stroke-width:0;stroke-linecap:round;stroke-linejoin:round;stroke-opacity:0.331492"
       d="m -1562.0554,-648.37773 c -2.3529,2.71012 -4.6094,5.92244 -5.1121,9.47608 -0.6314,4.46361 -0.028,9.76164 2.8677,13.21663 3.3763,4.02826 9.3333,5.87503 14.5882,5.9849 5.6127,0.11735 11.5429,-2.117 15.835,-5.73553 4.4971,-3.79132 8.262,-9.47279 8.728,-15.33628 0.3376,-4.24784 -1.3725,-9.06325 -4.4887,-11.96975 -3.8369,-3.57875 -9.8408,-4.57414 -15.0869,-4.48869 -3.4167,0.0557 -6.6923,1.6679 -9.7254,3.24184 -2.7964,1.4511 -5.5404,3.23184 -7.6058,5.6108 z"
       id="path17"
       sodipodi:nodetypes="ssssssssss" /><path
       style="fill:url(#linearGradient20);fill-opacity:1;fill-rule:evenodd;stroke:#db8b7d;stroke-width:0;stroke-linecap:round;stroke-linejoin:round;stroke-opacity:0.331492"
       d="m -1563.4269,-624.31347 c 0,0 -2.5856,2.69281 -4.1147,3.74054 -2.9899,2.04869 -6.2174,3.9513 -9.7254,4.86273 -2.6979,0.70095 -5.5918,0.74886 -8.3539,0.37404 -3.5946,-0.4878 -7.0894,-1.77439 -10.3489,-3.36648 -3.3352,-1.62906 -7.0117,-3.25577 -9.2267,-6.23427 -2.4161,-3.24891 -3.2562,-7.56292 -3.6159,-11.59571 -0.3275,-3.67132 0.4625,-7.40026 1.3716,-10.9723 1.1783,-4.62986 5.2368,-13.34132 5.2368,-13.34132 0,0 -0.7008,6.32335 -1.1222,9.47608 -0.5233,3.91508 -1.8901,7.77315 -1.7456,11.7204 0.1387,3.7887 0.583,7.82243 2.4937,11.09697 1.7796,3.04981 4.8097,5.32011 7.8552,7.10705 2.7999,1.64287 5.9811,3.04568 9.2267,3.11714 4.9314,0.10858 9.4445,-2.85725 14.2141,-4.11461 2.6027,-0.68612 7.8552,-1.87026 7.8552,-1.87026 z"
       id="path18"
       sodipodi:nodetypes="cssssssscssssssc" /><path
       style="fill:url(#linearGradient19);fill-opacity:1;fill-rule:evenodd;stroke:#db8b7d;stroke-width:0;stroke-linecap:round;stroke-linejoin:round;stroke-opacity:0.331492"
       d="m -1566.9181,-625.93439 c -2.6587,4.69206 -10.3257,3.56601 -15.7104,3.86524 -3.5156,0.19536 -7.2651,0.0787 -10.4735,-1.37154 -2.8181,-1.27382 -5.2456,-3.55064 -6.9824,-6.10958 -1.9563,-2.88233 -3.2049,-6.3784 -3.4912,-9.85012 -0.5655,-6.85767 1.3779,-13.81683 3.6159,-20.32367 1.5903,-4.6238 3.6249,-9.29881 6.8577,-12.96726 3.7279,-4.23025 8.7819,-7.23384 13.84,-9.72545 3.7499,-1.84722 7.7897,-3.771 11.9698,-3.74054 3.0623,0.0223 6.293,1.01064 8.728,2.86776 3.1713,2.41872 5.1736,6.25341 6.6083,9.97482 1.8903,4.9031 4.7442,10.89817 2.369,15.58562 -1.378,2.71956 -5.5303,2.60576 -8.1045,4.23932 -2.5548,1.62123 -5.2622,3.18925 -7.2318,5.48613 -1.8764,2.18812 -3.4291,4.80602 -4.1146,7.60579 -0.6327,2.58394 -0.2914,5.35233 0.1247,7.97986 0.3537,2.23337 3.1098,4.5163 1.995,6.48362 z"
       id="path19"
       sodipodi:nodetypes="sssssssssssssssss" /><path
       style="fill:url(#linearGradient22);fill-opacity:1;fill-rule:evenodd;stroke:#db8b7d;stroke-width:0;stroke-linecap:round;stroke-linejoin:round;stroke-opacity:0.331492"
       d="m -1524.9994,-634.27276 c 0,0 3.5028,1.29128 5.3361,1.56501 3.5846,0.53509 7.3192,0.83511 10.8726,0.12091 2.7329,-0.54921 5.3564,-1.77155 7.6766,-3.31624 3.0195,-2.01045 5.6,-4.69567 7.8353,-7.55257 2.2872,-2.92342 4.8824,-5.9939 5.5721,-9.64109 0.7524,-3.97831 -0.3784,-8.2254 -1.8181,-12.00954 -1.3108,-3.445 -3.6517,-6.45321 -6.0311,-9.2682 -3.084,-3.64856 -10.543,-9.70862 -10.543,-9.70862 0,0 3.395,5.38034 5.1525,8.03155 2.1824,3.29212 5.0986,6.16424 6.6945,9.77743 1.5318,3.4679 2.896,7.29002 2.6094,11.07036 -0.267,3.52094 -1.9994,6.88763 -3.9571,9.82622 -1.7996,2.70194 -4.0474,5.35428 -6.9351,6.83767 -4.3876,2.25382 -9.7432,1.55981 -14.5824,2.51457 -2.6407,0.52091 -7.8823,1.75254 -7.8823,1.75254 z"
       id="path20"
       sodipodi:nodetypes="cssssssscssssssc" /><path
       style="fill:url(#linearGradient21);fill-opacity:1;fill-rule:evenodd;stroke:#db8b7d;stroke-width:0;stroke-linecap:round;stroke-linejoin:round;stroke-opacity:0.331492"
       d="m -1522.5683,-637.25691 c 4.4426,3.05712 10.8456,-1.30771 15.8191,-3.39304 3.2471,-1.36155 6.5684,-3.10557 8.8196,-5.81297 1.9775,-2.3778 3.1651,-5.4868 3.6083,-8.54754 0.499,-3.44763 0.093,-7.13771 -1.1672,-10.38522 -2.4899,-6.41468 -7.2804,-11.8236 -12.1383,-16.69701 -3.4518,-3.46296 -7.3258,-6.77792 -11.8372,-8.66356 -5.2022,-2.1744 -11.0608,-2.66588 -16.6993,-2.6951 -4.1801,-0.0217 -8.6544,0.0145 -12.4005,1.86962 -2.7444,1.35877 -5.2176,3.66053 -6.5955,6.39536 -1.7945,3.56189 -1.9186,7.88604 -1.5817,11.86023 0.4437,5.23599 0.4984,11.87558 4.684,15.05263 2.4284,1.84325 6.113,-0.0746 9.1424,0.26904 3.0065,0.34103 6.127,0.56736 8.9027,1.77193 2.6441,1.14734 5.1852,2.82282 7.026,5.04114 1.6988,2.04716 2.6023,4.68621 3.3769,7.23114 0.6585,2.16321 -0.8221,5.42147 1.0407,6.70335 z"
       id="path21"
       sodipodi:nodetypes="sssssssssssssssss" /><path
       style="fill:url(#linearGradient28);fill-opacity:1;fill-rule:evenodd;stroke:#db8b7d;stroke-width:0;stroke-linecap:round;stroke-linejoin:round;stroke-opacity:0.331492"
       d="m -1529.9353,-651.95166 c 0,0 2.5856,-2.69281 4.1147,-3.74054 2.9899,-2.04869 6.2174,-3.9513 9.7254,-4.86273 2.6979,-0.70095 5.5918,-0.74886 8.3539,-0.37404 3.5946,0.4878 7.0894,1.77439 10.3489,3.36648 3.3352,1.62906 7.0117,3.25577 9.2267,6.23427 2.4161,3.24891 3.2562,7.56292 3.6159,11.59571 0.3275,3.67132 -0.4625,7.40026 -1.3716,10.9723 -1.1783,4.62986 -5.2368,13.34132 -5.2368,13.34132 0,0 0.7008,-6.32335 1.1222,-9.47608 0.5233,-3.91508 1.8901,-7.77315 1.7456,-11.7204 -0.1387,-3.7887 -0.583,-7.82243 -2.4937,-11.09697 -1.7796,-3.04981 -4.8097,-5.32011 -7.8552,-7.10705 -2.7999,-1.64287 -5.9811,-3.04568 -9.2267,-3.11714 -4.9314,-0.10858 -9.4445,2.85725 -14.2141,4.11461 -2.6027,0.68612 -7.8552,1.87026 -7.8552,1.87026 z"
       id="path22"
       sodipodi:nodetypes="cssssssscssssssc" /><path
       style="fill:url(#linearGradient27);fill-opacity:1;fill-rule:evenodd;stroke:#db8b7d;stroke-width:0;stroke-linecap:round;stroke-linejoin:round;stroke-opacity:0.331492"
       d="m -1526.4441,-650.33074 c 2.6587,-4.69206 10.3257,-3.56601 15.7104,-3.86524 3.5156,-0.19536 7.2651,-0.0787 10.4735,1.37154 2.8181,1.27382 5.2456,3.55064 6.9824,6.10958 1.9563,2.88233 3.2049,6.3784 3.4912,9.85012 0.5655,6.85767 -1.3779,13.81683 -3.6159,20.32367 -1.5903,4.6238 -3.6249,9.29881 -6.8577,12.96726 -3.7279,4.23025 -8.7819,7.23384 -13.84,9.72545 -3.7499,1.84722 -7.7897,3.771 -11.9698,3.74054 -3.0623,-0.0223 -6.293,-1.01064 -8.728,-2.86776 -3.1713,-2.41872 -5.1736,-6.25341 -6.6083,-9.97482 -1.8903,-4.9031 -4.7442,-10.89817 -2.369,-15.58562 1.378,-2.71956 5.5303,-2.60576 8.1045,-4.23932 2.5548,-1.62123 5.2622,-3.18925 7.2318,-5.48613 1.8764,-2.18812 3.4291,-4.80602 4.1146,-7.60579 0.6327,-2.58394 0.2914,-5.35233 -0.1247,-7.97986 -0.3537,-2.23337 -3.1098,-4.5163 -1.995,-6.48362 z"
       id="path23"
       sodipodi:nodetypes="sssssssssssssssss" /><path
       style="fill:url(#linearGradient26);fill-opacity:1;fill-rule:evenodd;stroke:#db8b7d;stroke-width:0;stroke-linecap:round;stroke-linejoin:round;stroke-opacity:0.331492"
       d="m -1568.3628,-641.99237 c 0,0 -3.5028,-1.29128 -5.3361,-1.56501 -3.5846,-0.53509 -7.3192,-0.83511 -10.8726,-0.12091 -2.7329,0.54921 -5.3564,1.77155 -7.6766,3.31624 -3.0195,2.01045 -5.6,4.69567 -7.8353,7.55257 -2.2872,2.92342 -4.8824,5.9939 -5.5721,9.64109 -0.7524,3.97831 0.3784,8.2254 1.8181,12.00954 1.3108,3.445 3.6517,6.45321 6.0311,9.2682 3.084,3.64856 10.543,9.70862 10.543,9.70862 0,0 -3.395,-5.38034 -5.1525,-8.03155 -2.1824,-3.29212 -5.0986,-6.16424 -6.6945,-9.77743 -1.5318,-3.4679 -2.896,-7.29002 -2.6094,-11.07036 0.267,-3.52094 1.9994,-6.88763 3.9571,-9.82622 1.7996,-2.70194 4.0474,-5.35428 6.9351,-6.83767 4.3876,-2.25382 9.7432,-1.55981 14.5824,-2.51457 2.6407,-0.52091 7.8823,-1.75254 7.8823,-1.75254 z"
       id="path24"
       sodipodi:nodetypes="cssssssscssssssc" /><path
       style="fill:url(#linearGradient25);fill-opacity:1;fill-rule:evenodd;stroke:#db8b7d;stroke-width:0;stroke-linecap:round;stroke-linejoin:round;stroke-opacity:0.331492"
       d="m -1570.7939,-639.00822 c -4.4426,-3.05712 -10.8456,1.30771 -15.8191,3.39304 -3.2471,1.36155 -6.5684,3.10557 -8.8196,5.81297 -1.9775,2.3778 -3.1651,5.4868 -3.6083,8.54754 -0.499,3.44763 -0.093,7.13771 1.1672,10.38522 2.4899,6.41468 7.2804,11.8236 12.1383,16.69701 3.4518,3.46296 7.3258,6.77792 11.8372,8.66356 5.2022,2.1744 11.0608,2.66588 16.6993,2.6951 4.1801,0.0217 8.6544,-0.0145 12.4005,-1.86962 2.7444,-1.35877 5.2176,-3.66053 6.5955,-6.39536 1.7945,-3.56189 1.9186,-7.88604 1.5817,-11.86023 -0.4437,-5.23599 -0.4984,-11.87558 -4.684,-15.05263 -2.4284,-1.84325 -6.113,0.0746 -9.1424,-0.26904 -3.0065,-0.34103 -6.127,-0.56736 -8.9027,-1.77193 -2.6441,-1.14734 -5.1852,-2.82282 -7.026,-5.04114 -1.6988,-2.04716 -2.6023,-4.68621 -3.3769,-7.23114 -0.6585,-2.16321 0.8221,-5.42147 -1.0407,-6.70335 z"
       id="path25"
       sodipodi:nodetypes="sssssssssssssssss" /></g></svg>
